<svg width="222" height="23" viewBox="0 0 222 23" fill="none" xmlns="http://www.w3.org/2000/svg">
<path d="M23.28 1.52C26.16 1.52 28.5387 1.79733 30.416 2.352C32.2933 2.90667 33.7653 3.664 34.832 4.624C35.8987 5.584 36.6453 6.68267 37.072 7.92C37.52 9.136 37.744 10.416 37.744 11.76C37.744 13.104 37.4987 14.3947 37.008 15.632C36.5173 16.848 35.7067 17.936 34.576 18.896C33.4667 19.856 31.984 20.6133 30.128 21.168C28.2933 21.7227 26.0107 22 23.28 22H0.24V1.52H23.28ZM8.24 15.6H22.96C24.1547 15.6 25.168 15.5253 26 15.376C26.832 15.2053 27.4933 14.96 27.984 14.64C28.496 14.32 28.8587 13.9253 29.072 13.456C29.3067 12.9653 29.424 12.4 29.424 11.76C29.424 11.12 29.3067 10.5653 29.072 10.096C28.8587 9.60533 28.496 9.2 27.984 8.88C27.4933 8.56 26.832 8.32533 26 8.176C25.168 8.00533 24.1547 7.92 22.96 7.92H8.24V15.6ZM49.8963 13.36V15.92H74.2163V22H41.8963V1.52H74.1523V7.6H49.8963V10.16H69.7363V13.36H49.8963ZM110.621 1.52V7.6H86.365V10.32H106.205V15.76H86.365V22H78.365V1.52H110.621ZM143.227 10.32V1.52H151.227V11.76C151.227 13.5733 150.885 15.12 150.203 16.4C149.541 17.6587 148.613 18.704 147.419 19.536C146.224 20.3467 144.848 20.976 143.291 21.424C141.733 21.872 140.059 22.1813 138.267 22.352C136.496 22.544 134.693 22.64 132.859 22.64C130.917 22.64 129.04 22.544 127.227 22.352C125.413 22.1813 123.728 21.872 122.171 21.424C120.635 20.976 119.291 20.3467 118.139 19.536C116.987 18.704 116.08 17.6587 115.419 16.4C114.779 15.12 114.459 13.5733 114.459 11.76V1.52H122.459V10.32C122.459 12.0267 122.875 13.328 123.707 14.224C124.539 15.12 125.723 15.7387 127.259 16.08C128.816 16.4 130.683 16.56 132.859 16.56C134.971 16.56 136.805 16.4 138.363 16.08C139.92 15.7387 141.115 15.12 141.947 14.224C142.8 13.328 143.227 12.0267 143.227 10.32ZM154.589 14.48H163.325C163.474 14.928 163.911 15.312 164.637 15.632C165.362 15.9307 166.333 16.1653 167.549 16.336C168.786 16.4853 170.215 16.56 171.837 16.56C173.437 16.56 174.695 16.5173 175.613 16.432C176.551 16.3253 177.213 16.1547 177.597 15.92C177.981 15.664 178.173 15.3227 178.173 14.896C178.173 14.4907 177.863 14.1813 177.245 13.968C176.626 13.7333 175.527 13.5733 173.949 13.488C172.37 13.4027 170.151 13.36 167.293 13.36C165.159 13.36 163.314 13.264 161.757 13.072C160.221 12.8587 158.951 12.5387 157.949 12.112C156.967 11.664 156.242 11.1093 155.773 10.448C155.303 9.76533 155.069 8.95467 155.069 8.016C155.069 6.39467 155.613 5.06133 156.701 4.016C157.81 2.94933 159.474 2.16 161.693 1.648C163.933 1.11467 166.727 0.848 170.077 0.848C174.983 0.848 178.727 1.56267 181.309 2.992C183.911 4.4 185.213 6.43733 185.213 9.104H176.925C176.818 8.4 176.157 7.86667 174.941 7.504C173.725 7.12 171.997 6.928 169.757 6.928C167.538 6.928 165.885 7.056 164.797 7.312C163.73 7.568 163.197 8.00533 163.197 8.624C163.197 8.944 163.346 9.2 163.645 9.392C163.943 9.584 164.455 9.744 165.181 9.872C165.927 9.97867 166.973 10.0533 168.317 10.096C169.661 10.1387 171.367 10.16 173.437 10.16C175.719 10.16 177.661 10.2773 179.261 10.512C180.861 10.7253 182.151 11.056 183.133 11.504C184.135 11.952 184.861 12.528 185.309 13.232C185.757 13.9147 185.981 14.7253 185.981 15.664C185.981 17.2853 185.469 18.608 184.445 19.632C183.421 20.656 181.799 21.4133 179.581 21.904C177.362 22.3947 174.461 22.64 170.877 22.64C168.85 22.64 166.983 22.5227 165.277 22.288C163.591 22.0533 162.087 21.712 160.765 21.264C159.442 20.7947 158.322 20.2293 157.405 19.568C156.487 18.8853 155.783 18.128 155.293 17.296C154.823 16.4427 154.589 15.504 154.589 14.48ZM197.49 13.36V15.92H221.81V22H189.49V1.52H221.746V7.6H197.49V10.16H217.33V13.36H197.49Z" fill="white"/>
</svg>
