<svg width="235" height="149" viewBox="0 0 235 149" fill="none" xmlns="http://www.w3.org/2000/svg">
<path d="M18.6916 101.644V117H15.6116V107.012L11.4976 117H9.16564L5.02964 107.012V117H1.94964V101.644H5.44764L10.3316 113.062L15.2156 101.644H18.6916ZM33.0668 110.642C33.0668 111.082 33.0374 111.478 32.9788 111.83H24.0688C24.1421 112.71 24.4501 113.399 24.9928 113.898C25.5354 114.397 26.2028 114.646 26.9948 114.646C28.1388 114.646 28.9528 114.155 29.4368 113.172H32.7588C32.4068 114.345 31.7321 115.313 30.7348 116.076C29.7374 116.824 28.5128 117.198 27.0608 117.198C25.8874 117.198 24.8314 116.941 23.8928 116.428C22.9688 115.9 22.2428 115.159 21.7148 114.206C21.2014 113.253 20.9447 112.153 20.9447 110.906C20.9447 109.645 21.2014 108.537 21.7148 107.584C22.2281 106.631 22.9468 105.897 23.8708 105.384C24.7948 104.871 25.8581 104.614 27.0608 104.614C28.2194 104.614 29.2534 104.863 30.1628 105.362C31.0868 105.861 31.7981 106.572 32.2968 107.496C32.8101 108.405 33.0668 109.454 33.0668 110.642ZM29.8768 109.762C29.8621 108.97 29.5761 108.339 29.0188 107.87C28.4614 107.386 27.7794 107.144 26.9728 107.144C26.2101 107.144 25.5648 107.379 25.0368 107.848C24.5234 108.303 24.2081 108.941 24.0908 109.762H29.8768ZM38.3949 100.72V117H35.3149V100.72H38.3949ZM48.3019 104.636C49.2259 104.636 50.0473 104.841 50.7659 105.252C51.4846 105.648 52.0419 106.242 52.4379 107.034C52.8486 107.811 53.0539 108.75 53.0539 109.85V117H49.9739V110.268C49.9739 109.3 49.7319 108.559 49.2479 108.046C48.7639 107.518 48.1039 107.254 47.2679 107.254C46.4173 107.254 45.7426 107.518 45.2439 108.046C44.7599 108.559 44.5179 109.3 44.5179 110.268V117H41.4379V100.72H44.5179V106.33C44.9139 105.802 45.4419 105.391 46.1019 105.098C46.7619 104.79 47.4953 104.636 48.3019 104.636ZM61.3948 117.198C60.2215 117.198 59.1655 116.941 58.2268 116.428C57.2882 115.9 56.5475 115.159 56.0048 114.206C55.4768 113.253 55.2128 112.153 55.2128 110.906C55.2128 109.659 55.4842 108.559 56.0268 107.606C56.5842 106.653 57.3395 105.919 58.2928 105.406C59.2462 104.878 60.3095 104.614 61.4828 104.614C62.6562 104.614 63.7195 104.878 64.6728 105.406C65.6262 105.919 66.3742 106.653 66.9168 107.606C67.4742 108.559 67.7528 109.659 67.7528 110.906C67.7528 112.153 67.4668 113.253 66.8948 114.206C66.3375 115.159 65.5748 115.9 64.6068 116.428C63.6535 116.941 62.5828 117.198 61.3948 117.198ZM61.3948 114.514C61.9522 114.514 62.4728 114.382 62.9568 114.118C63.4555 113.839 63.8515 113.429 64.1448 112.886C64.4382 112.343 64.5848 111.683 64.5848 110.906C64.5848 109.747 64.2768 108.86 63.6608 108.244C63.0595 107.613 62.3188 107.298 61.4388 107.298C60.5588 107.298 59.8182 107.613 59.2168 108.244C58.6302 108.86 58.3368 109.747 58.3368 110.906C58.3368 112.065 58.6228 112.959 59.1948 113.59C59.7815 114.206 60.5148 114.514 61.3948 114.514ZM73.0921 106.704C73.4881 106.059 74.0015 105.553 74.6321 105.186C75.2775 104.819 76.0108 104.636 76.8321 104.636V107.87H76.0181C75.0501 107.87 74.3168 108.097 73.8181 108.552C73.3341 109.007 73.0921 109.799 73.0921 110.928V117H70.0121V104.812H73.0921V106.704ZM90.2367 110.642C90.2367 111.082 90.2073 111.478 90.1487 111.83H81.2387C81.312 112.71 81.62 113.399 82.1627 113.898C82.7053 114.397 83.3727 114.646 84.1647 114.646C85.3087 114.646 86.1227 114.155 86.6067 113.172H89.9287C89.5767 114.345 88.902 115.313 87.9047 116.076C86.9073 116.824 85.6827 117.198 84.2307 117.198C83.0573 117.198 82.0013 116.941 81.0627 116.428C80.1387 115.9 79.4127 115.159 78.8847 114.206C78.3713 113.253 78.1147 112.153 78.1147 110.906C78.1147 109.645 78.3713 108.537 78.8847 107.584C79.398 106.631 80.1167 105.897 81.0407 105.384C81.9647 104.871 83.028 104.614 84.2307 104.614C85.3893 104.614 86.4233 104.863 87.3327 105.362C88.2567 105.861 88.968 106.572 89.4667 107.496C89.98 108.405 90.2367 109.454 90.2367 110.642ZM87.0467 109.762C87.032 108.97 86.746 108.339 86.1887 107.87C85.6313 107.386 84.9493 107.144 84.1427 107.144C83.38 107.144 82.7347 107.379 82.2067 107.848C81.6933 108.303 81.378 108.941 81.2607 109.762H87.0467ZM96.935 110.862C96.935 109.63 97.177 108.537 97.661 107.584C98.1597 106.631 98.827 105.897 99.663 105.384C100.514 104.871 101.46 104.614 102.501 104.614C103.41 104.614 104.202 104.797 104.877 105.164C105.566 105.531 106.116 105.993 106.527 106.55V104.812H109.629V117H106.527V115.218C106.131 115.79 105.581 116.267 104.877 116.648C104.188 117.015 103.388 117.198 102.479 117.198C101.452 117.198 100.514 116.934 99.663 116.406C98.827 115.878 98.1597 115.137 97.661 114.184C97.177 113.216 96.935 112.109 96.935 110.862ZM106.527 110.906C106.527 110.158 106.38 109.52 106.087 108.992C105.794 108.449 105.398 108.039 104.899 107.76C104.4 107.467 103.865 107.32 103.293 107.32C102.721 107.32 102.193 107.459 101.709 107.738C101.225 108.017 100.829 108.427 100.521 108.97C100.228 109.498 100.081 110.129 100.081 110.862C100.081 111.595 100.228 112.241 100.521 112.798C100.829 113.341 101.225 113.759 101.709 114.052C102.208 114.345 102.736 114.492 103.293 114.492C103.865 114.492 104.4 114.353 104.899 114.074C105.398 113.781 105.794 113.37 106.087 112.842C106.38 112.299 106.527 111.654 106.527 110.906ZM122.543 117.198C121.546 117.198 120.651 117.022 119.859 116.67C119.067 116.303 118.437 115.812 117.967 115.196C117.513 114.58 117.263 113.898 117.219 113.15H120.321C120.38 113.619 120.607 114.008 121.003 114.316C121.414 114.624 121.92 114.778 122.521 114.778C123.108 114.778 123.563 114.661 123.885 114.426C124.223 114.191 124.391 113.891 124.391 113.524C124.391 113.128 124.186 112.835 123.775 112.644C123.379 112.439 122.741 112.219 121.861 111.984C120.952 111.764 120.204 111.537 119.617 111.302C119.045 111.067 118.547 110.708 118.121 110.224C117.711 109.74 117.505 109.087 117.505 108.266C117.505 107.591 117.696 106.975 118.077 106.418C118.473 105.861 119.031 105.421 119.749 105.098C120.483 104.775 121.341 104.614 122.323 104.614C123.775 104.614 124.934 104.981 125.799 105.714C126.665 106.433 127.141 107.408 127.229 108.64H124.281C124.237 108.156 124.032 107.775 123.665 107.496C123.313 107.203 122.837 107.056 122.235 107.056C121.678 107.056 121.245 107.159 120.937 107.364C120.644 107.569 120.497 107.855 120.497 108.222C120.497 108.633 120.703 108.948 121.113 109.168C121.524 109.373 122.162 109.586 123.027 109.806C123.907 110.026 124.633 110.253 125.205 110.488C125.777 110.723 126.269 111.089 126.679 111.588C127.105 112.072 127.325 112.717 127.339 113.524C127.339 114.228 127.141 114.859 126.745 115.416C126.364 115.973 125.807 116.413 125.073 116.736C124.355 117.044 123.511 117.198 122.543 117.198ZM129.076 110.862C129.076 109.63 129.318 108.537 129.802 107.584C130.3 106.631 130.968 105.897 131.804 105.384C132.654 104.871 133.6 104.614 134.642 104.614C135.551 104.614 136.343 104.797 137.018 105.164C137.707 105.531 138.257 105.993 138.668 106.55V104.812H141.77V117H138.668V115.218C138.272 115.79 137.722 116.267 137.018 116.648C136.328 117.015 135.529 117.198 134.62 117.198C133.593 117.198 132.654 116.934 131.804 116.406C130.968 115.878 130.3 115.137 129.802 114.184C129.318 113.216 129.076 112.109 129.076 110.862ZM138.668 110.906C138.668 110.158 138.521 109.52 138.228 108.992C137.934 108.449 137.538 108.039 137.04 107.76C136.541 107.467 136.006 107.32 135.434 107.32C134.862 107.32 134.334 107.459 133.85 107.738C133.366 108.017 132.97 108.427 132.662 108.97C132.368 109.498 132.222 110.129 132.222 110.862C132.222 111.595 132.368 112.241 132.662 112.798C132.97 113.341 133.366 113.759 133.85 114.052C134.348 114.345 134.876 114.492 135.434 114.492C136.006 114.492 136.541 114.353 137.04 114.074C137.538 113.781 137.934 113.37 138.228 112.842C138.521 112.299 138.668 111.654 138.668 110.906ZM148.364 107.342V113.238C148.364 113.649 148.459 113.949 148.65 114.14C148.855 114.316 149.192 114.404 149.662 114.404H151.092V117H149.156C146.56 117 145.262 115.739 145.262 113.216V107.342H143.81V104.812H145.262V101.798H148.364V104.812H151.092V107.342H148.364ZM154.869 103.36C154.326 103.36 153.872 103.191 153.505 102.854C153.153 102.502 152.977 102.069 152.977 101.556C152.977 101.043 153.153 100.617 153.505 100.28C153.872 99.928 154.326 99.752 154.869 99.752C155.412 99.752 155.859 99.928 156.211 100.28C156.578 100.617 156.761 101.043 156.761 101.556C156.761 102.069 156.578 102.502 156.211 102.854C155.859 103.191 155.412 103.36 154.869 103.36ZM156.387 104.812V117H153.307V104.812H156.387ZM164.094 117.198C163.097 117.198 162.202 117.022 161.41 116.67C160.618 116.303 159.987 115.812 159.518 115.196C159.063 114.58 158.814 113.898 158.77 113.15H161.872C161.931 113.619 162.158 114.008 162.554 114.316C162.965 114.624 163.471 114.778 164.072 114.778C164.659 114.778 165.113 114.661 165.436 114.426C165.773 114.191 165.942 113.891 165.942 113.524C165.942 113.128 165.737 112.835 165.326 112.644C164.93 112.439 164.292 112.219 163.412 111.984C162.503 111.764 161.755 111.537 161.168 111.302C160.596 111.067 160.097 110.708 159.672 110.224C159.261 109.74 159.056 109.087 159.056 108.266C159.056 107.591 159.247 106.975 159.628 106.418C160.024 105.861 160.581 105.421 161.3 105.098C162.033 104.775 162.891 104.614 163.874 104.614C165.326 104.614 166.485 104.981 167.35 105.714C168.215 106.433 168.692 107.408 168.78 108.64H165.832C165.788 108.156 165.583 107.775 165.216 107.496C164.864 107.203 164.387 107.056 163.786 107.056C163.229 107.056 162.796 107.159 162.488 107.364C162.195 107.569 162.048 107.855 162.048 108.222C162.048 108.633 162.253 108.948 162.664 109.168C163.075 109.373 163.713 109.586 164.578 109.806C165.458 110.026 166.184 110.253 166.756 110.488C167.328 110.723 167.819 111.089 168.23 111.588C168.655 112.072 168.875 112.717 168.89 113.524C168.89 114.228 168.692 114.859 168.296 115.416C167.915 115.973 167.357 116.413 166.624 116.736C165.905 117.044 165.062 117.198 164.094 117.198ZM177.006 107.342H174.872V117H171.748V107.342H170.362V104.812H171.748V104.196C171.748 102.7 172.174 101.6 173.024 100.896C173.875 100.192 175.158 99.862 176.874 99.906V102.502C176.126 102.487 175.606 102.612 175.312 102.876C175.019 103.14 174.872 103.617 174.872 104.306V104.812H177.006V107.342ZM178.21 110.862C178.21 109.63 178.452 108.537 178.936 107.584C179.435 106.631 180.102 105.897 180.938 105.384C181.789 104.871 182.735 104.614 183.776 104.614C184.686 104.614 185.478 104.797 186.152 105.164C186.842 105.531 187.392 105.993 187.802 106.55V104.812H190.904V117H187.802V115.218C187.406 115.79 186.856 116.267 186.152 116.648C185.463 117.015 184.664 117.198 183.754 117.198C182.728 117.198 181.789 116.934 180.938 116.406C180.102 115.878 179.435 115.137 178.936 114.184C178.452 113.216 178.21 112.109 178.21 110.862ZM187.802 110.906C187.802 110.158 187.656 109.52 187.362 108.992C187.069 108.449 186.673 108.039 186.174 107.76C185.676 107.467 185.14 107.32 184.568 107.32C183.996 107.32 183.468 107.459 182.984 107.738C182.5 108.017 182.104 108.427 181.796 108.97C181.503 109.498 181.356 110.129 181.356 110.862C181.356 111.595 181.503 112.241 181.796 112.798C182.104 113.341 182.5 113.759 182.984 114.052C183.483 114.345 184.011 114.492 184.568 114.492C185.14 114.492 185.676 114.353 186.174 114.074C186.673 113.781 187.069 113.37 187.362 112.842C187.656 112.299 187.802 111.654 187.802 110.906ZM199.127 114.558C200.373 114.558 201.187 114.001 201.569 112.886H204.891C204.583 114.074 204.011 115.042 203.175 115.79C202.353 116.538 201.319 116.985 200.073 117.132V117.99C200.879 117.99 201.554 118.195 202.097 118.606C202.654 119.017 202.933 119.611 202.933 120.388C202.933 121.18 202.647 121.789 202.075 122.214C201.517 122.639 200.828 122.852 200.007 122.852H196.883V121.048H199.501C199.853 121.048 200.117 120.997 200.293 120.894C200.483 120.791 200.579 120.608 200.579 120.344C200.579 120.08 200.483 119.897 200.293 119.794C200.117 119.706 199.853 119.662 199.501 119.662H198.137V117.132C197.139 116.985 196.259 116.641 195.497 116.098C194.749 115.541 194.162 114.822 193.737 113.942C193.326 113.047 193.121 112.035 193.121 110.906C193.121 109.645 193.377 108.545 193.891 107.606C194.404 106.653 195.115 105.919 196.025 105.406C196.934 104.878 197.975 104.614 199.149 104.614C200.659 104.614 201.906 104.995 202.889 105.758C203.886 106.506 204.553 107.562 204.891 108.926H201.569C201.393 108.398 201.092 107.987 200.667 107.694C200.256 107.386 199.743 107.232 199.127 107.232C198.247 107.232 197.55 107.555 197.037 108.2C196.523 108.831 196.267 109.733 196.267 110.906C196.267 112.065 196.523 112.967 197.037 113.612C197.55 114.243 198.247 114.558 199.127 114.558ZM206.355 110.862C206.355 109.63 206.597 108.537 207.081 107.584C207.58 106.631 208.247 105.897 209.083 105.384C209.934 104.871 210.88 104.614 211.921 104.614C212.83 104.614 213.622 104.797 214.297 105.164C214.986 105.531 215.536 105.993 215.947 106.55V104.812H219.049V117H215.947V115.218C215.551 115.79 215.001 116.267 214.297 116.648C213.608 117.015 212.808 117.198 211.899 117.198C210.872 117.198 209.934 116.934 209.083 116.406C208.247 115.878 207.58 115.137 207.081 114.184C206.597 113.216 206.355 112.109 206.355 110.862ZM215.947 110.906C215.947 110.158 215.8 109.52 215.507 108.992C215.214 108.449 214.818 108.039 214.319 107.76C213.82 107.467 213.285 107.32 212.713 107.32C212.141 107.32 211.613 107.459 211.129 107.738C210.645 108.017 210.249 108.427 209.941 108.97C209.648 109.498 209.501 110.129 209.501 110.862C209.501 111.595 209.648 112.241 209.941 112.798C210.249 113.341 210.645 113.759 211.129 114.052C211.628 114.345 212.156 114.492 212.713 114.492C213.285 114.492 213.82 114.353 214.319 114.074C214.818 113.781 215.214 113.37 215.507 112.842C215.8 112.299 215.947 111.654 215.947 110.906ZM209.171 103.646C209.303 102.678 209.604 101.959 210.073 101.49C210.557 101.006 211.166 100.764 211.899 100.764C212.207 100.764 212.478 100.815 212.713 100.918C212.948 101.006 213.212 101.138 213.505 101.314C213.945 101.593 214.312 101.732 214.605 101.732C215.148 101.732 215.463 101.417 215.551 100.786H217.201C217.069 101.754 216.761 102.48 216.277 102.964C215.808 103.433 215.206 103.668 214.473 103.668C214.165 103.668 213.894 103.624 213.659 103.536C213.424 103.433 213.16 103.294 212.867 103.118C212.442 102.825 212.075 102.678 211.767 102.678C211.224 102.678 210.902 103.001 210.799 103.646H209.171ZM227.469 117.198C226.296 117.198 225.24 116.941 224.301 116.428C223.362 115.9 222.622 115.159 222.079 114.206C221.551 113.253 221.287 112.153 221.287 110.906C221.287 109.659 221.558 108.559 222.101 107.606C222.658 106.653 223.414 105.919 224.367 105.406C225.32 104.878 226.384 104.614 227.557 104.614C228.73 104.614 229.794 104.878 230.747 105.406C231.7 105.919 232.448 106.653 232.991 107.606C233.548 108.559 233.827 109.659 233.827 110.906C233.827 112.153 233.541 113.253 232.969 114.206C232.412 115.159 231.649 115.9 230.681 116.428C229.728 116.941 228.657 117.198 227.469 117.198ZM227.469 114.514C228.026 114.514 228.547 114.382 229.031 114.118C229.53 113.839 229.926 113.429 230.219 112.886C230.512 112.343 230.659 111.683 230.659 110.906C230.659 109.747 230.351 108.86 229.735 108.244C229.134 107.613 228.393 107.298 227.513 107.298C226.633 107.298 225.892 107.613 225.291 108.244C224.704 108.86 224.411 109.747 224.411 110.906C224.411 112.065 224.697 112.959 225.269 113.59C225.856 114.206 226.589 114.514 227.469 114.514ZM40.603 136.862C40.603 135.63 40.845 134.537 41.329 133.584C41.8276 132.631 42.5023 131.897 43.353 131.384C44.2036 130.871 45.1496 130.614 46.191 130.614C46.983 130.614 47.7383 130.79 48.457 131.142C49.1756 131.479 49.7476 131.934 50.173 132.506V126.72H53.297V143H50.173V141.196C49.7916 141.797 49.2563 142.281 48.567 142.648C47.8776 143.015 47.0783 143.198 46.169 143.198C45.1423 143.198 44.2036 142.934 43.353 142.406C42.5023 141.878 41.8276 141.137 41.329 140.184C40.845 139.216 40.603 138.109 40.603 136.862ZM50.195 136.906C50.195 136.158 50.0483 135.52 49.755 134.992C49.4616 134.449 49.0656 134.039 48.567 133.76C48.0683 133.467 47.533 133.32 46.961 133.32C46.389 133.32 45.861 133.459 45.377 133.738C44.893 134.017 44.497 134.427 44.189 134.97C43.8956 135.498 43.749 136.129 43.749 136.862C43.749 137.595 43.8956 138.241 44.189 138.798C44.497 139.341 44.893 139.759 45.377 140.052C45.8756 140.345 46.4036 140.492 46.961 140.492C47.533 140.492 48.0683 140.353 48.567 140.074C49.0656 139.781 49.4616 139.37 49.755 138.842C50.0483 138.299 50.195 137.654 50.195 136.906ZM61.7171 143.198C60.5438 143.198 59.4878 142.941 58.5491 142.428C57.6104 141.9 56.8698 141.159 56.3271 140.206C55.7991 139.253 55.5351 138.153 55.5351 136.906C55.5351 135.659 55.8064 134.559 56.3491 133.606C56.9064 132.653 57.6618 131.919 58.6151 131.406C59.5684 130.878 60.6318 130.614 61.8051 130.614C62.9784 130.614 64.0418 130.878 64.9951 131.406C65.9484 131.919 66.6964 132.653 67.2391 133.606C67.7964 134.559 68.0751 135.659 68.0751 136.906C68.0751 138.153 67.7891 139.253 67.2171 140.206C66.6598 141.159 65.8971 141.9 64.9291 142.428C63.9758 142.941 62.9051 143.198 61.7171 143.198ZM61.7171 140.514C62.2744 140.514 62.7951 140.382 63.2791 140.118C63.7778 139.839 64.1738 139.429 64.4671 138.886C64.7604 138.343 64.9071 137.683 64.9071 136.906C64.9071 135.747 64.5991 134.86 63.9831 134.244C63.3818 133.613 62.6411 133.298 61.7611 133.298C60.8811 133.298 60.1404 133.613 59.5391 134.244C58.9524 134.86 58.6591 135.747 58.6591 136.906C58.6591 138.065 58.9451 138.959 59.5171 139.59C60.1038 140.206 60.8371 140.514 61.7171 140.514ZM80.2406 143.198C79.2433 143.198 78.3486 143.022 77.5566 142.67C76.7646 142.303 76.1339 141.812 75.6646 141.196C75.2099 140.58 74.9606 139.898 74.9166 139.15H78.0186C78.0773 139.619 78.3046 140.008 78.7006 140.316C79.1113 140.624 79.6173 140.778 80.2186 140.778C80.8053 140.778 81.2599 140.661 81.5826 140.426C81.9199 140.191 82.0886 139.891 82.0886 139.524C82.0886 139.128 81.8833 138.835 81.4726 138.644C81.0766 138.439 80.4386 138.219 79.5586 137.984C78.6493 137.764 77.9013 137.537 77.3146 137.302C76.7426 137.067 76.2439 136.708 75.8186 136.224C75.4079 135.74 75.2026 135.087 75.2026 134.266C75.2026 133.591 75.3933 132.975 75.7746 132.418C76.1706 131.861 76.7279 131.421 77.4466 131.098C78.1799 130.775 79.0379 130.614 80.0206 130.614C81.4726 130.614 82.6313 130.981 83.4966 131.714C84.3619 132.433 84.8386 133.408 84.9266 134.64H81.9786C81.9346 134.156 81.7293 133.775 81.3626 133.496C81.0106 133.203 80.5339 133.056 79.9326 133.056C79.3753 133.056 78.9426 133.159 78.6346 133.364C78.3413 133.569 78.1946 133.855 78.1946 134.222C78.1946 134.633 78.3999 134.948 78.8106 135.168C79.2213 135.373 79.8593 135.586 80.7246 135.806C81.6046 136.026 82.3306 136.253 82.9026 136.488C83.4746 136.723 83.9659 137.089 84.3766 137.588C84.8019 138.072 85.0219 138.717 85.0366 139.524C85.0366 140.228 84.8386 140.859 84.4426 141.416C84.0613 141.973 83.5039 142.413 82.7706 142.736C82.0519 143.044 81.2086 143.198 80.2406 143.198ZM98.8949 136.642C98.8949 137.082 98.8655 137.478 98.8069 137.83H89.8969C89.9702 138.71 90.2782 139.399 90.8209 139.898C91.3635 140.397 92.0309 140.646 92.8229 140.646C93.9669 140.646 94.7809 140.155 95.2649 139.172H98.5869C98.2349 140.345 97.5602 141.313 96.5629 142.076C95.5655 142.824 94.3409 143.198 92.8889 143.198C91.7155 143.198 90.6595 142.941 89.7209 142.428C88.7969 141.9 88.0709 141.159 87.5429 140.206C87.0295 139.253 86.7729 138.153 86.7729 136.906C86.7729 135.645 87.0295 134.537 87.5429 133.584C88.0562 132.631 88.7749 131.897 89.6989 131.384C90.6229 130.871 91.6862 130.614 92.8889 130.614C94.0475 130.614 95.0815 130.863 95.9909 131.362C96.9149 131.861 97.6262 132.572 98.1249 133.496C98.6382 134.405 98.8949 135.454 98.8949 136.642ZM95.7049 135.762C95.6902 134.97 95.4042 134.339 94.8469 133.87C94.2895 133.386 93.6075 133.144 92.8009 133.144C92.0382 133.144 91.3929 133.379 90.8649 133.848C90.3515 134.303 90.0362 134.941 89.9189 135.762H95.7049ZM112.649 130.812V143H109.547V141.46C109.151 141.988 108.63 142.406 107.985 142.714C107.354 143.007 106.665 143.154 105.917 143.154C104.964 143.154 104.12 142.956 103.387 142.56C102.654 142.149 102.074 141.555 101.649 140.778C101.238 139.986 101.033 139.047 101.033 137.962V130.812H104.113V137.522C104.113 138.49 104.355 139.238 104.839 139.766C105.323 140.279 105.983 140.536 106.819 140.536C107.67 140.536 108.337 140.279 108.821 139.766C109.305 139.238 109.547 138.49 109.547 137.522V130.812H112.649ZM120.138 136.906C120.138 135.645 120.395 134.545 120.908 133.606C121.421 132.653 122.133 131.919 123.042 131.406C123.951 130.878 124.993 130.614 126.166 130.614C127.677 130.614 128.923 130.995 129.906 131.758C130.903 132.506 131.571 133.562 131.908 134.926H128.586C128.41 134.398 128.109 133.987 127.684 133.694C127.273 133.386 126.76 133.232 126.144 133.232C125.264 133.232 124.567 133.555 124.054 134.2C123.541 134.831 123.284 135.733 123.284 136.906C123.284 138.065 123.541 138.967 124.054 139.612C124.567 140.243 125.264 140.558 126.144 140.558C127.391 140.558 128.205 140.001 128.586 138.886H131.908C131.571 140.206 130.903 141.255 129.906 142.032C128.909 142.809 127.662 143.198 126.166 143.198C124.993 143.198 123.951 142.941 123.042 142.428C122.133 141.9 121.421 141.167 120.908 140.228C120.395 139.275 120.138 138.167 120.138 136.906ZM137.244 126.72V143H134.164V126.72H137.244ZM141.85 129.36C141.307 129.36 140.852 129.191 140.486 128.854C140.134 128.502 139.958 128.069 139.958 127.556C139.958 127.043 140.134 126.617 140.486 126.28C140.852 125.928 141.307 125.752 141.85 125.752C142.392 125.752 142.84 125.928 143.192 126.28C143.558 126.617 143.742 127.043 143.742 127.556C143.742 128.069 143.558 128.502 143.192 128.854C142.84 129.191 142.392 129.36 141.85 129.36ZM143.368 130.812V143H140.288V130.812H143.368ZM157.741 136.642C157.741 137.082 157.711 137.478 157.653 137.83H148.743C148.816 138.71 149.124 139.399 149.667 139.898C150.209 140.397 150.877 140.646 151.669 140.646C152.813 140.646 153.627 140.155 154.111 139.172H157.433C157.081 140.345 156.406 141.313 155.409 142.076C154.411 142.824 153.187 143.198 151.735 143.198C150.561 143.198 149.505 142.941 148.567 142.428C147.643 141.9 146.917 141.159 146.389 140.206C145.875 139.253 145.619 138.153 145.619 136.906C145.619 135.645 145.875 134.537 146.389 133.584C146.902 132.631 147.621 131.897 148.545 131.384C149.469 130.871 150.532 130.614 151.735 130.614C152.893 130.614 153.927 130.863 154.837 131.362C155.761 131.861 156.472 132.572 156.971 133.496C157.484 134.405 157.741 135.454 157.741 136.642ZM154.551 135.762C154.536 134.97 154.25 134.339 153.693 133.87C153.135 133.386 152.453 133.144 151.647 133.144C150.884 133.144 150.239 133.379 149.711 133.848C149.197 134.303 148.882 134.941 148.765 135.762H154.551ZM166.743 130.636C168.195 130.636 169.368 131.098 170.263 132.022C171.157 132.931 171.605 134.207 171.605 135.85V143H168.525V136.268C168.525 135.3 168.283 134.559 167.799 134.046C167.315 133.518 166.655 133.254 165.819 133.254C164.968 133.254 164.293 133.518 163.795 134.046C163.311 134.559 163.069 135.3 163.069 136.268V143H159.989V130.812H163.069V132.33C163.479 131.802 164 131.391 164.631 131.098C165.276 130.79 165.98 130.636 166.743 130.636ZM178.12 133.342V139.238C178.12 139.649 178.215 139.949 178.406 140.14C178.611 140.316 178.948 140.404 179.418 140.404H180.848V143H178.912C176.316 143 175.018 141.739 175.018 139.216V133.342H173.566V130.812H175.018V127.798H178.12V130.812H180.848V133.342H178.12ZM194.393 136.642C194.393 137.082 194.364 137.478 194.305 137.83H185.395C185.468 138.71 185.776 139.399 186.319 139.898C186.862 140.397 187.529 140.646 188.321 140.646C189.465 140.646 190.279 140.155 190.763 139.172H194.085C193.733 140.345 193.058 141.313 192.061 142.076C191.064 142.824 189.839 143.198 188.387 143.198C187.214 143.198 186.158 142.941 185.219 142.428C184.295 141.9 183.569 141.159 183.041 140.206C182.528 139.253 182.271 138.153 182.271 136.906C182.271 135.645 182.528 134.537 183.041 133.584C183.554 132.631 184.273 131.897 185.197 131.384C186.121 130.871 187.184 130.614 188.387 130.614C189.546 130.614 190.58 130.863 191.489 131.362C192.413 131.861 193.124 132.572 193.623 133.496C194.136 134.405 194.393 135.454 194.393 136.642ZM191.203 135.762C191.188 134.97 190.902 134.339 190.345 133.87C189.788 133.386 189.106 133.144 188.299 133.144C187.536 133.144 186.891 133.379 186.363 133.848C185.85 134.303 185.534 134.941 185.417 135.762H191.203Z" fill="#FFFFFA"/>
<path fill-rule="evenodd" clip-rule="evenodd" d="M120.44 60.1966H96.793C96.6683 60.1966 96.5483 60.1472 96.4612 60.0601C96.3718 59.9707 96.3224 59.8507 96.3224 59.726V56.3142C96.3224 54.3613 97.7177 52.6389 99.8683 51.173C103.708 48.5542 109.922 46.9025 116.911 46.9025C117.885 46.9025 118.675 46.1119 118.675 45.1378C118.675 44.1636 117.885 43.373 116.911 43.373C109.094 43.373 102.174 45.3283 97.8777 48.2578C94.6 50.493 92.793 53.333 92.793 56.3142V59.726C92.793 60.7872 93.2141 61.806 93.9647 62.5542C94.7153 63.3048 95.7318 63.726 96.793 63.726H120.44C121.414 63.726 122.205 62.9354 122.205 61.9613C122.205 60.9872 121.414 60.1966 120.44 60.1966Z" fill="white"/>
<path fill-rule="evenodd" clip-rule="evenodd" d="M116.914 15.4624C109.77 15.4624 103.973 21.26 103.973 28.4036C103.973 35.5448 109.77 41.3448 116.914 41.3448C124.057 41.3448 129.855 35.5448 129.855 28.4036C129.855 21.26 124.057 15.4624 116.914 15.4624ZM116.914 18.9918C122.109 18.9918 126.326 23.2083 126.326 28.4036C126.326 33.5965 122.109 37.8153 116.914 37.8153C111.719 37.8153 107.502 33.5965 107.502 28.4036C107.502 23.2083 111.719 18.9918 116.914 18.9918Z" fill="white"/>
<path fill-rule="evenodd" clip-rule="evenodd" d="M129.781 64.3872C130.111 64.7167 130.56 64.9025 131.028 64.9025C131.496 64.9025 131.946 64.7167 132.275 64.3872L141.049 55.6131C144.158 52.5049 144.158 47.4555 141.049 44.3449C138.327 41.6249 134.12 41.2837 131.028 43.3261C127.936 41.2837 123.729 41.6249 121.007 44.3449C117.911 47.4437 117.899 52.4649 120.972 55.5778L129.781 64.3872ZM131.028 60.6437L123.48 53.0955C121.772 51.3614 121.779 48.5661 123.503 46.8414C125.235 45.1096 128.049 45.1096 129.781 46.8414C130.471 47.5308 131.586 47.5308 132.275 46.8414C134.009 45.1096 136.821 45.1096 138.553 46.8414C140.285 48.5731 140.285 51.3849 138.553 53.119L131.028 60.6437Z" fill="white"/>
</svg>
