<svg width="249" height="149" viewBox="0 0 249 149" fill="none" xmlns="http://www.w3.org/2000/svg">
<path d="M18.2795 101.644V117H15.1995V107.012L11.0855 117H8.75353L4.61753 107.012V117H1.53753V101.644H5.03553L9.91953 113.062L14.8035 101.644H18.2795ZM32.6546 110.642C32.6546 111.082 32.6253 111.478 32.5666 111.83H23.6566C23.73 112.71 24.038 113.399 24.5806 113.898C25.1233 114.397 25.7906 114.646 26.5826 114.646C27.7266 114.646 28.5406 114.155 29.0246 113.172H32.3466C31.9946 114.345 31.32 115.313 30.3226 116.076C29.3253 116.824 28.1006 117.198 26.6486 117.198C25.4753 117.198 24.4193 116.941 23.4806 116.428C22.5566 115.9 21.8306 115.159 21.3026 114.206C20.7893 113.253 20.5326 112.153 20.5326 110.906C20.5326 109.645 20.7893 108.537 21.3026 107.584C21.816 106.631 22.5346 105.897 23.4586 105.384C24.3826 104.871 25.446 104.614 26.6486 104.614C27.8073 104.614 28.8413 104.863 29.7506 105.362C30.6746 105.861 31.386 106.572 31.8846 107.496C32.398 108.405 32.6546 109.454 32.6546 110.642ZM29.4646 109.762C29.45 108.97 29.164 108.339 28.6066 107.87C28.0493 107.386 27.3673 107.144 26.5606 107.144C25.798 107.144 25.1526 107.379 24.6246 107.848C24.1113 108.303 23.796 108.941 23.6786 109.762H29.4646ZM37.9828 100.72V117H34.9028V100.72H37.9828ZM47.8898 104.636C48.8138 104.636 49.6351 104.841 50.3538 105.252C51.0725 105.648 51.6298 106.242 52.0258 107.034C52.4365 107.811 52.6418 108.75 52.6418 109.85V117H49.5618V110.268C49.5618 109.3 49.3198 108.559 48.8358 108.046C48.3518 107.518 47.6918 107.254 46.8558 107.254C46.0051 107.254 45.3305 107.518 44.8318 108.046C44.3478 108.559 44.1058 109.3 44.1058 110.268V117H41.0258V100.72H44.1058V106.33C44.5018 105.802 45.0298 105.391 45.6898 105.098C46.3498 104.79 47.0831 104.636 47.8898 104.636ZM60.9827 117.198C59.8094 117.198 58.7534 116.941 57.8147 116.428C56.8761 115.9 56.1354 115.159 55.5927 114.206C55.0647 113.253 54.8007 112.153 54.8007 110.906C54.8007 109.659 55.0721 108.559 55.6147 107.606C56.1721 106.653 56.9274 105.919 57.8807 105.406C58.8341 104.878 59.8974 104.614 61.0707 104.614C62.2441 104.614 63.3074 104.878 64.2607 105.406C65.2141 105.919 65.9621 106.653 66.5047 107.606C67.0621 108.559 67.3407 109.659 67.3407 110.906C67.3407 112.153 67.0547 113.253 66.4827 114.206C65.9254 115.159 65.1627 115.9 64.1947 116.428C63.2414 116.941 62.1707 117.198 60.9827 117.198ZM60.9827 114.514C61.5401 114.514 62.0607 114.382 62.5447 114.118C63.0434 113.839 63.4394 113.429 63.7327 112.886C64.0261 112.343 64.1727 111.683 64.1727 110.906C64.1727 109.747 63.8647 108.86 63.2487 108.244C62.6474 107.613 61.9067 107.298 61.0267 107.298C60.1467 107.298 59.4061 107.613 58.8047 108.244C58.2181 108.86 57.9247 109.747 57.9247 110.906C57.9247 112.065 58.2107 112.959 58.7827 113.59C59.3694 114.206 60.1027 114.514 60.9827 114.514ZM72.68 106.704C73.076 106.059 73.5894 105.553 74.22 105.186C74.8654 104.819 75.5987 104.636 76.42 104.636V107.87H75.606C74.638 107.87 73.9047 108.097 73.406 108.552C72.922 109.007 72.68 109.799 72.68 110.928V117H69.6V104.812H72.68V106.704ZM89.8246 110.642C89.8246 111.082 89.7952 111.478 89.7366 111.83H80.8266C80.8999 112.71 81.2079 113.399 81.7506 113.898C82.2932 114.397 82.9606 114.646 83.7526 114.646C84.8966 114.646 85.7106 114.155 86.1946 113.172H89.5166C89.1646 114.345 88.4899 115.313 87.4926 116.076C86.4952 116.824 85.2706 117.198 83.8186 117.198C82.6452 117.198 81.5892 116.941 80.6506 116.428C79.7266 115.9 79.0006 115.159 78.4726 114.206C77.9592 113.253 77.7026 112.153 77.7026 110.906C77.7026 109.645 77.9592 108.537 78.4726 107.584C78.9859 106.631 79.7046 105.897 80.6286 105.384C81.5526 104.871 82.6159 104.614 83.8186 104.614C84.9772 104.614 86.0112 104.863 86.9206 105.362C87.8446 105.861 88.5559 106.572 89.0546 107.496C89.5679 108.405 89.8246 109.454 89.8246 110.642ZM86.6346 109.762C86.6199 108.97 86.3339 108.339 85.7766 107.87C85.2192 107.386 84.5372 107.144 83.7306 107.144C82.9679 107.144 82.3226 107.379 81.7946 107.848C81.2812 108.303 80.9659 108.941 80.8486 109.762H86.6346ZM96.5229 110.862C96.5229 109.63 96.7649 108.537 97.2489 107.584C97.7475 106.631 98.4149 105.897 99.2509 105.384C100.102 104.871 101.048 104.614 102.089 104.614C102.998 104.614 103.79 104.797 104.465 105.164C105.154 105.531 105.704 105.993 106.115 106.55V104.812H109.217V117H106.115V115.218C105.719 115.79 105.169 116.267 104.465 116.648C103.776 117.015 102.976 117.198 102.067 117.198C101.04 117.198 100.102 116.934 99.2509 116.406C98.4149 115.878 97.7475 115.137 97.2489 114.184C96.7649 113.216 96.5229 112.109 96.5229 110.862ZM106.115 110.906C106.115 110.158 105.968 109.52 105.675 108.992C105.382 108.449 104.986 108.039 104.487 107.76C103.988 107.467 103.453 107.32 102.881 107.32C102.309 107.32 101.781 107.459 101.297 107.738C100.813 108.017 100.417 108.427 100.109 108.97C99.8155 109.498 99.6689 110.129 99.6689 110.862C99.6689 111.595 99.8155 112.241 100.109 112.798C100.417 113.341 100.813 113.759 101.297 114.052C101.796 114.345 102.324 114.492 102.881 114.492C103.453 114.492 103.988 114.353 104.487 114.074C104.986 113.781 105.382 113.37 105.675 112.842C105.968 112.299 106.115 111.654 106.115 110.906ZM128.973 104.812V117H125.871V115.46C125.475 115.988 124.955 116.406 124.309 116.714C123.679 117.007 122.989 117.154 122.241 117.154C121.288 117.154 120.445 116.956 119.711 116.56C118.978 116.149 118.399 115.555 117.973 114.778C117.563 113.986 117.357 113.047 117.357 111.962V104.812H120.437V111.522C120.437 112.49 120.679 113.238 121.163 113.766C121.647 114.279 122.307 114.536 123.143 114.536C123.994 114.536 124.661 114.279 125.145 113.766C125.629 113.238 125.871 112.49 125.871 111.522V104.812H128.973ZM136.676 117.198C135.679 117.198 134.784 117.022 133.992 116.67C133.2 116.303 132.569 115.812 132.1 115.196C131.645 114.58 131.396 113.898 131.352 113.15H134.454C134.513 113.619 134.74 114.008 135.136 114.316C135.547 114.624 136.053 114.778 136.654 114.778C137.241 114.778 137.695 114.661 138.018 114.426C138.355 114.191 138.524 113.891 138.524 113.524C138.524 113.128 138.319 112.835 137.908 112.644C137.512 112.439 136.874 112.219 135.994 111.984C135.085 111.764 134.337 111.537 133.75 111.302C133.178 111.067 132.679 110.708 132.254 110.224C131.843 109.74 131.638 109.087 131.638 108.266C131.638 107.591 131.829 106.975 132.21 106.418C132.606 105.861 133.163 105.421 133.882 105.098C134.615 104.775 135.473 104.614 136.456 104.614C137.908 104.614 139.067 104.981 139.932 105.714C140.797 106.433 141.274 107.408 141.362 108.64H138.414C138.37 108.156 138.165 107.775 137.798 107.496C137.446 107.203 136.969 107.056 136.368 107.056C135.811 107.056 135.378 107.159 135.07 107.364C134.777 107.569 134.63 107.855 134.63 108.222C134.63 108.633 134.835 108.948 135.246 109.168C135.657 109.373 136.295 109.586 137.16 109.806C138.04 110.026 138.766 110.253 139.338 110.488C139.91 110.723 140.401 111.089 140.812 111.588C141.237 112.072 141.457 112.717 141.472 113.524C141.472 114.228 141.274 114.859 140.878 115.416C140.497 115.973 139.939 116.413 139.206 116.736C138.487 117.044 137.644 117.198 136.676 117.198ZM143.208 110.862C143.208 109.63 143.45 108.537 143.934 107.584C144.433 106.631 145.1 105.897 145.936 105.384C146.787 104.871 147.733 104.614 148.774 104.614C149.684 104.614 150.476 104.797 151.15 105.164C151.84 105.531 152.39 105.993 152.8 106.55V104.812H155.902V117H152.8V115.218C152.404 115.79 151.854 116.267 151.15 116.648C150.461 117.015 149.662 117.198 148.752 117.198C147.726 117.198 146.787 116.934 145.936 116.406C145.1 115.878 144.433 115.137 143.934 114.184C143.45 113.216 143.208 112.109 143.208 110.862ZM152.8 110.906C152.8 110.158 152.654 109.52 152.36 108.992C152.067 108.449 151.671 108.039 151.172 107.76C150.674 107.467 150.138 107.32 149.566 107.32C148.994 107.32 148.466 107.459 147.982 107.738C147.498 108.017 147.102 108.427 146.794 108.97C146.501 109.498 146.354 110.129 146.354 110.862C146.354 111.595 146.501 112.241 146.794 112.798C147.102 113.341 147.498 113.759 147.982 114.052C148.481 114.345 149.009 114.492 149.566 114.492C150.138 114.492 150.674 114.353 151.172 114.074C151.671 113.781 152.067 113.37 152.36 112.842C152.654 112.299 152.8 111.654 152.8 110.906ZM161.991 106.594C162.387 106.007 162.929 105.531 163.619 105.164C164.323 104.797 165.122 104.614 166.017 104.614C167.058 104.614 167.997 104.871 168.833 105.384C169.683 105.897 170.351 106.631 170.835 107.584C171.333 108.523 171.583 109.615 171.583 110.862C171.583 112.109 171.333 113.216 170.835 114.184C170.351 115.137 169.683 115.878 168.833 116.406C167.997 116.934 167.058 117.198 166.017 117.198C165.107 117.198 164.308 117.022 163.619 116.67C162.944 116.303 162.401 115.834 161.991 115.262V117H158.911V100.72H161.991V106.594ZM168.437 110.862C168.437 110.129 168.283 109.498 167.975 108.97C167.681 108.427 167.285 108.017 166.787 107.738C166.303 107.459 165.775 107.32 165.203 107.32C164.645 107.32 164.117 107.467 163.619 107.76C163.135 108.039 162.739 108.449 162.431 108.992C162.137 109.535 161.991 110.173 161.991 110.906C161.991 111.639 162.137 112.277 162.431 112.82C162.739 113.363 163.135 113.781 163.619 114.074C164.117 114.353 164.645 114.492 165.203 114.492C165.775 114.492 166.303 114.345 166.787 114.052C167.285 113.759 167.681 113.341 167.975 112.798C168.283 112.255 168.437 111.61 168.437 110.862ZM175.383 103.36C174.84 103.36 174.385 103.191 174.019 102.854C173.667 102.502 173.491 102.069 173.491 101.556C173.491 101.043 173.667 100.617 174.019 100.28C174.385 99.928 174.84 99.752 175.383 99.752C175.925 99.752 176.373 99.928 176.725 100.28C177.091 100.617 177.275 101.043 177.275 101.556C177.275 102.069 177.091 102.502 176.725 102.854C176.373 103.191 175.925 103.36 175.383 103.36ZM176.901 104.812V117H173.821V104.812H176.901ZM183.024 100.72V117H179.944V100.72H183.024ZM187.629 103.36C187.086 103.36 186.631 103.191 186.265 102.854C185.913 102.502 185.737 102.069 185.737 101.556C185.737 101.043 185.913 100.617 186.265 100.28C186.631 99.928 187.086 99.752 187.629 99.752C188.171 99.752 188.619 99.928 188.971 100.28C189.337 100.617 189.521 101.043 189.521 101.556C189.521 102.069 189.337 102.502 188.971 102.854C188.619 103.191 188.171 103.36 187.629 103.36ZM189.147 104.812V117H186.067V104.812H189.147ZM191.398 110.862C191.398 109.63 191.64 108.537 192.124 107.584C192.623 106.631 193.297 105.897 194.148 105.384C194.999 104.871 195.945 104.614 196.986 104.614C197.778 104.614 198.533 104.79 199.252 105.142C199.971 105.479 200.543 105.934 200.968 106.506V100.72H204.092V117H200.968V115.196C200.587 115.797 200.051 116.281 199.362 116.648C198.673 117.015 197.873 117.198 196.964 117.198C195.937 117.198 194.999 116.934 194.148 116.406C193.297 115.878 192.623 115.137 192.124 114.184C191.64 113.216 191.398 112.109 191.398 110.862ZM200.99 110.906C200.99 110.158 200.843 109.52 200.55 108.992C200.257 108.449 199.861 108.039 199.362 107.76C198.863 107.467 198.328 107.32 197.756 107.32C197.184 107.32 196.656 107.459 196.172 107.738C195.688 108.017 195.292 108.427 194.984 108.97C194.691 109.498 194.544 110.129 194.544 110.862C194.544 111.595 194.691 112.241 194.984 112.798C195.292 113.341 195.688 113.759 196.172 114.052C196.671 114.345 197.199 114.492 197.756 114.492C198.328 114.492 198.863 114.353 199.362 114.074C199.861 113.781 200.257 113.37 200.55 112.842C200.843 112.299 200.99 111.654 200.99 110.906ZM206.308 110.862C206.308 109.63 206.55 108.537 207.034 107.584C207.533 106.631 208.2 105.897 209.036 105.384C209.887 104.871 210.833 104.614 211.874 104.614C212.783 104.614 213.575 104.797 214.25 105.164C214.939 105.531 215.489 105.993 215.9 106.55V104.812H219.002V117H215.9V115.218C215.504 115.79 214.954 116.267 214.25 116.648C213.561 117.015 212.761 117.198 211.852 117.198C210.825 117.198 209.887 116.934 209.036 116.406C208.2 115.878 207.533 115.137 207.034 114.184C206.55 113.216 206.308 112.109 206.308 110.862ZM215.9 110.906C215.9 110.158 215.753 109.52 215.46 108.992C215.167 108.449 214.771 108.039 214.272 107.76C213.773 107.467 213.238 107.32 212.666 107.32C212.094 107.32 211.566 107.459 211.082 107.738C210.598 108.017 210.202 108.427 209.894 108.97C209.601 109.498 209.454 110.129 209.454 110.862C209.454 111.595 209.601 112.241 209.894 112.798C210.202 113.341 210.598 113.759 211.082 114.052C211.581 114.345 212.109 114.492 212.666 114.492C213.238 114.492 213.773 114.353 214.272 114.074C214.771 113.781 215.167 113.37 215.46 112.842C215.753 112.299 215.9 111.654 215.9 110.906ZM221.218 110.862C221.218 109.63 221.46 108.537 221.944 107.584C222.443 106.631 223.118 105.897 223.968 105.384C224.819 104.871 225.765 104.614 226.806 104.614C227.598 104.614 228.354 104.79 229.072 105.142C229.791 105.479 230.363 105.934 230.788 106.506V100.72H233.912V117H230.788V115.196C230.407 115.797 229.872 116.281 229.182 116.648C228.493 117.015 227.694 117.198 226.784 117.198C225.758 117.198 224.819 116.934 223.968 116.406C223.118 115.878 222.443 115.137 221.944 114.184C221.46 113.216 221.218 112.109 221.218 110.862ZM230.81 110.906C230.81 110.158 230.664 109.52 230.37 108.992C230.077 108.449 229.681 108.039 229.182 107.76C228.684 107.467 228.148 107.32 227.576 107.32C227.004 107.32 226.476 107.459 225.992 107.738C225.508 108.017 225.112 108.427 224.804 108.97C224.511 109.498 224.364 110.129 224.364 110.862C224.364 111.595 224.511 112.241 224.804 112.798C225.112 113.341 225.508 113.759 225.992 114.052C226.491 114.345 227.019 114.492 227.576 114.492C228.148 114.492 228.684 114.353 229.182 114.074C229.681 113.781 230.077 113.37 230.37 112.842C230.664 112.299 230.81 111.654 230.81 110.906ZM248.25 110.642C248.25 111.082 248.221 111.478 248.162 111.83H239.252C239.326 112.71 239.634 113.399 240.176 113.898C240.719 114.397 241.386 114.646 242.178 114.646C243.322 114.646 244.136 114.155 244.62 113.172H247.942C247.59 114.345 246.916 115.313 245.918 116.076C244.921 116.824 243.696 117.198 242.244 117.198C241.071 117.198 240.015 116.941 239.076 116.428C238.152 115.9 237.426 115.159 236.898 114.206C236.385 113.253 236.128 112.153 236.128 110.906C236.128 109.645 236.385 108.537 236.898 107.584C237.412 106.631 238.13 105.897 239.054 105.384C239.978 104.871 241.042 104.614 242.244 104.614C243.403 104.614 244.437 104.863 245.346 105.362C246.27 105.861 246.982 106.572 247.48 107.496C247.994 108.405 248.25 109.454 248.25 110.642ZM245.06 109.762C245.046 108.97 244.76 108.339 244.202 107.87C243.645 107.386 242.963 107.144 242.156 107.144C241.394 107.144 240.748 107.379 240.22 107.848C239.707 108.303 239.392 108.941 239.274 109.762H245.06ZM65.349 136.862C65.349 135.63 65.591 134.537 66.075 133.584C66.5737 132.631 67.2484 131.897 68.099 131.384C68.9497 130.871 69.8957 130.614 70.937 130.614C71.729 130.614 72.4844 130.79 73.203 131.142C73.9217 131.479 74.4937 131.934 74.919 132.506V126.72H78.043V143H74.919V141.196C74.5377 141.797 74.0024 142.281 73.313 142.648C72.6237 143.015 71.8244 143.198 70.915 143.198C69.8884 143.198 68.9497 142.934 68.099 142.406C67.2484 141.878 66.5737 141.137 66.075 140.184C65.591 139.216 65.349 138.109 65.349 136.862ZM74.941 136.906C74.941 136.158 74.7944 135.52 74.501 134.992C74.2077 134.449 73.8117 134.039 73.313 133.76C72.8144 133.467 72.279 133.32 71.707 133.32C71.135 133.32 70.607 133.459 70.123 133.738C69.639 134.017 69.243 134.427 68.935 134.97C68.6417 135.498 68.495 136.129 68.495 136.862C68.495 137.595 68.6417 138.241 68.935 138.798C69.243 139.341 69.639 139.759 70.123 140.052C70.6217 140.345 71.1497 140.492 71.707 140.492C72.279 140.492 72.8144 140.353 73.313 140.074C73.8117 139.781 74.2077 139.37 74.501 138.842C74.7944 138.299 74.941 137.654 74.941 136.906ZM86.4632 143.198C85.2899 143.198 84.2339 142.941 83.2952 142.428C82.3565 141.9 81.6159 141.159 81.0732 140.206C80.5452 139.253 80.2812 138.153 80.2812 136.906C80.2812 135.659 80.5525 134.559 81.0952 133.606C81.6525 132.653 82.4079 131.919 83.3612 131.406C84.3145 130.878 85.3779 130.614 86.5512 130.614C87.7245 130.614 88.7879 130.878 89.7412 131.406C90.6945 131.919 91.4425 132.653 91.9852 133.606C92.5425 134.559 92.8212 135.659 92.8212 136.906C92.8212 138.153 92.5352 139.253 91.9632 140.206C91.4059 141.159 90.6432 141.9 89.6752 142.428C88.7219 142.941 87.6512 143.198 86.4632 143.198ZM86.4632 140.514C87.0205 140.514 87.5412 140.382 88.0252 140.118C88.5239 139.839 88.9199 139.429 89.2132 138.886C89.5065 138.343 89.6532 137.683 89.6532 136.906C89.6532 135.747 89.3452 134.86 88.7292 134.244C88.1279 133.613 87.3872 133.298 86.5072 133.298C85.6272 133.298 84.8865 133.613 84.2852 134.244C83.6985 134.86 83.4052 135.747 83.4052 136.906C83.4052 138.065 83.6912 138.959 84.2632 139.59C84.8499 140.206 85.5832 140.514 86.4632 140.514ZM104.987 143.198C103.989 143.198 103.095 143.022 102.303 142.67C101.511 142.303 100.88 141.812 100.411 141.196C99.956 140.58 99.7067 139.898 99.6627 139.15H102.765C102.823 139.619 103.051 140.008 103.447 140.316C103.857 140.624 104.363 140.778 104.965 140.778C105.551 140.778 106.006 140.661 106.329 140.426C106.666 140.191 106.835 139.891 106.835 139.524C106.835 139.128 106.629 138.835 106.219 138.644C105.823 138.439 105.185 138.219 104.305 137.984C103.395 137.764 102.647 137.537 102.061 137.302C101.489 137.067 100.99 136.708 100.565 136.224C100.154 135.74 99.9487 135.087 99.9487 134.266C99.9487 133.591 100.139 132.975 100.521 132.418C100.917 131.861 101.474 131.421 102.193 131.098C102.926 130.775 103.784 130.614 104.767 130.614C106.219 130.614 107.377 130.981 108.243 131.714C109.108 132.433 109.585 133.408 109.673 134.64H106.725C106.681 134.156 106.475 133.775 106.109 133.496C105.757 133.203 105.28 133.056 104.679 133.056C104.121 133.056 103.689 133.159 103.381 133.364C103.087 133.569 102.941 133.855 102.941 134.222C102.941 134.633 103.146 134.948 103.557 135.168C103.967 135.373 104.605 135.586 105.471 135.806C106.351 136.026 107.077 136.253 107.649 136.488C108.221 136.723 108.712 137.089 109.123 137.588C109.548 138.072 109.768 138.717 109.783 139.524C109.783 140.228 109.585 140.859 109.189 141.416C108.807 141.973 108.25 142.413 107.517 142.736C106.798 143.044 105.955 143.198 104.987 143.198ZM123.641 136.642C123.641 137.082 123.612 137.478 123.553 137.83H114.643C114.716 138.71 115.024 139.399 115.567 139.898C116.11 140.397 116.777 140.646 117.569 140.646C118.713 140.646 119.527 140.155 120.011 139.172H123.333C122.981 140.345 122.306 141.313 121.309 142.076C120.312 142.824 119.087 143.198 117.635 143.198C116.462 143.198 115.406 142.941 114.467 142.428C113.543 141.9 112.817 141.159 112.289 140.206C111.776 139.253 111.519 138.153 111.519 136.906C111.519 135.645 111.776 134.537 112.289 133.584C112.802 132.631 113.521 131.897 114.445 131.384C115.369 130.871 116.432 130.614 117.635 130.614C118.794 130.614 119.828 130.863 120.737 131.362C121.661 131.861 122.372 132.572 122.871 133.496C123.384 134.405 123.641 135.454 123.641 136.642ZM120.451 135.762C120.436 134.97 120.15 134.339 119.593 133.87C119.036 133.386 118.354 133.144 117.547 133.144C116.784 133.144 116.139 133.379 115.611 133.848C115.098 134.303 114.782 134.941 114.665 135.762H120.451ZM137.395 130.812V143H134.293V141.46C133.897 141.988 133.376 142.406 132.731 142.714C132.1 143.007 131.411 143.154 130.663 143.154C129.71 143.154 128.866 142.956 128.133 142.56C127.4 142.149 126.82 141.555 126.395 140.778C125.984 139.986 125.779 139.047 125.779 137.962V130.812H128.859V137.522C128.859 138.49 129.101 139.238 129.585 139.766C130.069 140.279 130.729 140.536 131.565 140.536C132.416 140.536 133.083 140.279 133.567 139.766C134.051 139.238 134.293 138.49 134.293 137.522V130.812H137.395ZM150.34 143.198C149.343 143.198 148.448 143.022 147.656 142.67C146.864 142.303 146.234 141.812 145.764 141.196C145.31 140.58 145.06 139.898 145.016 139.15H148.118C148.177 139.619 148.404 140.008 148.8 140.316C149.211 140.624 149.717 140.778 150.318 140.778C150.905 140.778 151.36 140.661 151.682 140.426C152.02 140.191 152.188 139.891 152.188 139.524C152.188 139.128 151.983 138.835 151.572 138.644C151.176 138.439 150.538 138.219 149.658 137.984C148.749 137.764 148.001 137.537 147.414 137.302C146.842 137.067 146.344 136.708 145.918 136.224C145.508 135.74 145.302 135.087 145.302 134.266C145.302 133.591 145.493 132.975 145.874 132.418C146.27 131.861 146.828 131.421 147.546 131.098C148.28 130.775 149.138 130.614 150.12 130.614C151.572 130.614 152.731 130.981 153.596 131.714C154.462 132.433 154.938 133.408 155.026 134.64H152.078C152.034 134.156 151.829 133.775 151.462 133.496C151.11 133.203 150.634 133.056 150.032 133.056C149.475 133.056 149.042 133.159 148.734 133.364C148.441 133.569 148.294 133.855 148.294 134.222C148.294 134.633 148.5 134.948 148.91 135.168C149.321 135.373 149.959 135.586 150.824 135.806C151.704 136.026 152.43 136.253 153.002 136.488C153.574 136.723 154.066 137.089 154.476 137.588C154.902 138.072 155.122 138.717 155.136 139.524C155.136 140.228 154.938 140.859 154.542 141.416C154.161 141.973 153.604 142.413 152.87 142.736C152.152 143.044 151.308 143.198 150.34 143.198ZM159.226 129.36C158.684 129.36 158.229 129.191 157.862 128.854C157.51 128.502 157.334 128.069 157.334 127.556C157.334 127.043 157.51 126.617 157.862 126.28C158.229 125.928 158.684 125.752 159.226 125.752C159.769 125.752 160.216 125.928 160.568 126.28C160.935 126.617 161.118 127.043 161.118 127.556C161.118 128.069 160.935 128.502 160.568 128.854C160.216 129.191 159.769 129.36 159.226 129.36ZM160.744 130.812V143H157.664V130.812H160.744ZM167.374 133.342V139.238C167.374 139.649 167.469 139.949 167.66 140.14C167.865 140.316 168.202 140.404 168.672 140.404H170.102V143H168.166C165.57 143 164.272 141.739 164.272 139.216V133.342H162.82V130.812H164.272V127.798H167.374V130.812H170.102V133.342H167.374ZM183.647 136.642C183.647 137.082 183.617 137.478 183.559 137.83H174.649C174.722 138.71 175.03 139.399 175.573 139.898C176.115 140.397 176.783 140.646 177.575 140.646C178.719 140.646 179.533 140.155 180.017 139.172H183.339C182.987 140.345 182.312 141.313 181.315 142.076C180.317 142.824 179.093 143.198 177.641 143.198C176.467 143.198 175.411 142.941 174.473 142.428C173.549 141.9 172.823 141.159 172.295 140.206C171.781 139.253 171.525 138.153 171.525 136.906C171.525 135.645 171.781 134.537 172.295 133.584C172.808 132.631 173.527 131.897 174.451 131.384C175.375 130.871 176.438 130.614 177.641 130.614C178.799 130.614 179.833 130.863 180.743 131.362C181.667 131.861 182.378 132.572 182.877 133.496C183.39 134.405 183.647 135.454 183.647 136.642ZM180.457 135.762C180.442 134.97 180.156 134.339 179.599 133.87C179.041 133.386 178.359 133.144 177.553 133.144C176.79 133.144 176.145 133.379 175.617 133.848C175.103 134.303 174.788 134.941 174.671 135.762H180.457Z" fill="#FFFFFA"/>
<path fill-rule="evenodd" clip-rule="evenodd" d="M91.3032 14.1179C88.2609 14.1179 85.7539 16.6215 85.7539 19.6638V60.7517C85.7539 63.7941 88.2609 66.301 91.3032 66.301H139.364C142.407 66.301 144.914 63.7941 144.914 60.7517V19.6638C144.914 16.6215 142.407 14.1179 139.364 14.1179H91.3032ZM91.3032 17.5977H139.364C140.539 17.5977 141.43 18.4891 141.43 19.6638V27.371H89.2337V19.6638C89.2337 18.4891 90.1285 17.5977 91.3032 17.5977ZM94.8204 19.7046C93.3232 19.7427 92.1086 20.9784 92.1086 22.4843C92.1086 24.0142 93.3619 25.2641 94.8917 25.2641C96.4216 25.2641 97.6681 24.0142 97.6681 22.4843C97.6681 20.9545 96.4216 19.7046 94.8917 19.7046C94.8681 19.7046 94.8444 19.704 94.8204 19.7046ZM102.932 19.7046C101.435 19.7427 100.224 20.9784 100.224 22.4843C100.224 24.0142 101.473 25.2641 103.003 25.2641C104.533 25.2641 105.78 24.0142 105.78 22.4843C105.78 20.9545 104.533 19.7046 103.003 19.7046C102.98 19.7046 102.956 19.704 102.932 19.7046ZM111.047 19.7046C109.55 19.7427 108.335 20.9784 108.335 22.4843C108.335 24.0142 109.588 25.2641 111.118 25.2641C112.648 25.2641 113.895 24.0142 113.895 22.4843C113.895 20.9545 112.648 19.7046 111.118 19.7046C111.095 19.7046 111.071 19.704 111.047 19.7046ZM89.2337 30.8508H141.43V60.7517C141.43 61.9265 140.539 62.8212 139.364 62.8212H91.3032C90.1285 62.8212 89.2337 61.9265 89.2337 60.7517V30.8508ZM95.0548 36.2336C94.5934 36.2318 94.1502 36.4134 93.8226 36.7384C93.4951 37.0634 93.31 37.5052 93.3082 37.9667V55.7054C93.31 56.1668 93.4951 56.6086 93.8226 56.9336C94.1502 57.2586 94.5934 57.4402 95.0548 57.4385H112.559C113.018 57.4366 113.458 57.2534 113.783 56.9288C114.107 56.6042 114.29 56.1645 114.292 55.7054V37.9667C114.29 37.5076 114.107 37.0678 113.783 36.7432C113.458 36.4186 113.018 36.2354 112.559 36.2336H95.0548ZM96.7879 39.7133H110.812V53.9587H96.7879V39.7133ZM120.497 40.2537C120.268 40.2528 120.04 40.2973 119.828 40.3848C119.616 40.4722 119.423 40.6009 119.26 40.7632C119.098 40.9256 118.969 41.1185 118.882 41.3309C118.794 41.5432 118.75 41.7707 118.751 42.0003C118.752 42.2288 118.797 42.4549 118.886 42.6657C118.974 42.8764 119.103 43.0677 119.265 43.2286C119.427 43.3896 119.62 43.517 119.831 43.6036C120.042 43.6902 120.269 43.7343 120.497 43.7334H135.613C136.072 43.7325 136.513 43.5498 136.838 43.225C137.164 42.9003 137.347 42.46 137.349 42.0003C137.35 41.7716 137.306 41.5449 137.219 41.3332C137.132 41.1216 137.004 40.9291 136.843 40.7669C136.682 40.6046 136.49 40.4758 136.279 40.3877C136.068 40.2997 135.841 40.2541 135.613 40.2537H120.497ZM120.497 49.9386C120.269 49.9377 120.042 49.9818 119.831 50.0684C119.62 50.1551 119.427 50.2825 119.265 50.4434C119.103 50.6043 118.974 50.7956 118.886 51.0064C118.797 51.2171 118.752 51.4432 118.751 51.6717C118.75 51.9013 118.794 52.1289 118.882 52.3412C118.969 52.5535 119.098 52.7464 119.26 52.9088C119.423 53.0712 119.616 53.1998 119.828 53.2873C120.04 53.3747 120.268 53.4193 120.497 53.4184H135.613C135.841 53.4179 136.068 53.3724 136.279 53.2843C136.49 53.1963 136.682 53.0674 136.843 52.9052C137.004 52.7429 137.132 52.5505 137.219 52.3388C137.306 52.1272 137.35 51.9005 137.349 51.6717C137.347 51.212 137.164 50.7717 136.838 50.447C136.513 50.1223 136.072 49.9395 135.613 49.9386H120.497Z" fill="white"/>
</svg>
