<svg width="205" height="149" viewBox="0 0 205 149" fill="none" xmlns="http://www.w3.org/2000/svg">
<path d="M34.6938 114.074H28.5778L27.5658 117H24.3318L29.8538 101.622H33.4398L38.9618 117H35.7058L34.6938 114.074ZM33.8578 111.61L31.6358 105.186L29.4138 111.61H33.8578ZM45.7998 104.614C46.7091 104.614 47.5085 104.797 48.1978 105.164C48.8871 105.516 49.4298 105.978 49.8258 106.55V104.812H52.9278V117.088C52.9278 118.217 52.7005 119.222 52.2458 120.102C51.7911 120.997 51.1091 121.701 50.1998 122.214C49.2905 122.742 48.1905 123.006 46.8998 123.006C45.1691 123.006 43.7465 122.603 42.6318 121.796C41.5318 120.989 40.9085 119.889 40.7618 118.496H43.8198C43.9811 119.053 44.3258 119.493 44.8538 119.816C45.3965 120.153 46.0491 120.322 46.8118 120.322C47.7065 120.322 48.4325 120.051 48.9898 119.508C49.5471 118.98 49.8258 118.173 49.8258 117.088V115.196C49.4298 115.768 48.8798 116.245 48.1758 116.626C47.4865 117.007 46.6945 117.198 45.7998 117.198C44.7731 117.198 43.8345 116.934 42.9838 116.406C42.1331 115.878 41.4585 115.137 40.9598 114.184C40.4758 113.216 40.2338 112.109 40.2338 110.862C40.2338 109.63 40.4758 108.537 40.9598 107.584C41.4585 106.631 42.1258 105.897 42.9618 105.384C43.8125 104.871 44.7585 104.614 45.7998 104.614ZM49.8258 110.906C49.8258 110.158 49.6791 109.52 49.3858 108.992C49.0925 108.449 48.6965 108.039 48.1978 107.76C47.6991 107.467 47.1638 107.32 46.5918 107.32C46.0198 107.32 45.4918 107.459 45.0078 107.738C44.5238 108.017 44.1278 108.427 43.8198 108.97C43.5265 109.498 43.3798 110.129 43.3798 110.862C43.3798 111.595 43.5265 112.241 43.8198 112.798C44.1278 113.341 44.5238 113.759 45.0078 114.052C45.5065 114.345 46.0345 114.492 46.5918 114.492C47.1638 114.492 47.6991 114.353 48.1978 114.074C48.6965 113.781 49.0925 113.37 49.3858 112.842C49.6791 112.299 49.8258 111.654 49.8258 110.906ZM59.016 106.704C59.412 106.059 59.9253 105.553 60.556 105.186C61.2013 104.819 61.9346 104.636 62.756 104.636V107.87H61.942C60.974 107.87 60.2406 108.097 59.742 108.552C59.258 109.007 59.016 109.799 59.016 110.928V117H55.936V104.812H59.016V106.704ZM76.1605 110.642C76.1605 111.082 76.1312 111.478 76.0725 111.83H67.1625C67.2358 112.71 67.5438 113.399 68.0865 113.898C68.6292 114.397 69.2965 114.646 70.0885 114.646C71.2325 114.646 72.0465 114.155 72.5305 113.172H75.8525C75.5005 114.345 74.8258 115.313 73.8285 116.076C72.8312 116.824 71.6065 117.198 70.1545 117.198C68.9812 117.198 67.9252 116.941 66.9865 116.428C66.0625 115.9 65.3365 115.159 64.8085 114.206C64.2952 113.253 64.0385 112.153 64.0385 110.906C64.0385 109.645 64.2952 108.537 64.8085 107.584C65.3218 106.631 66.0405 105.897 66.9645 105.384C67.8885 104.871 68.9518 104.614 70.1545 104.614C71.3132 104.614 72.3472 104.863 73.2565 105.362C74.1805 105.861 74.8918 106.572 75.3905 107.496C75.9038 108.405 76.1605 109.454 76.1605 110.642ZM72.9705 109.762C72.9558 108.97 72.6698 108.339 72.1125 107.87C71.5552 107.386 70.8732 107.144 70.0665 107.144C69.3038 107.144 68.6585 107.379 68.1305 107.848C67.6172 108.303 67.3018 108.941 67.1845 109.762H72.9705ZM83.1826 104.614C84.092 104.614 84.8913 104.797 85.5806 105.164C86.27 105.516 86.8126 105.978 87.2086 106.55V104.812H90.3106V117.088C90.3106 118.217 90.0833 119.222 89.6286 120.102C89.174 120.997 88.492 121.701 87.5826 122.214C86.6733 122.742 85.5733 123.006 84.2826 123.006C82.552 123.006 81.1293 122.603 80.0146 121.796C78.9146 120.989 78.2913 119.889 78.1446 118.496H81.2026C81.364 119.053 81.7086 119.493 82.2366 119.816C82.7793 120.153 83.432 120.322 84.1946 120.322C85.0893 120.322 85.8153 120.051 86.3726 119.508C86.93 118.98 87.2086 118.173 87.2086 117.088V115.196C86.8126 115.768 86.2626 116.245 85.5586 116.626C84.8693 117.007 84.0773 117.198 83.1826 117.198C82.156 117.198 81.2173 116.934 80.3666 116.406C79.516 115.878 78.8413 115.137 78.3426 114.184C77.8586 113.216 77.6166 112.109 77.6166 110.862C77.6166 109.63 77.8586 108.537 78.3426 107.584C78.8413 106.631 79.5086 105.897 80.3446 105.384C81.1953 104.871 82.1413 104.614 83.1826 104.614ZM87.2086 110.906C87.2086 110.158 87.062 109.52 86.7686 108.992C86.4753 108.449 86.0793 108.039 85.5806 107.76C85.082 107.467 84.5466 107.32 83.9746 107.32C83.4026 107.32 82.8746 107.459 82.3906 107.738C81.9066 108.017 81.5106 108.427 81.2026 108.97C80.9093 109.498 80.7626 110.129 80.7626 110.862C80.7626 111.595 80.9093 112.241 81.2026 112.798C81.5106 113.341 81.9066 113.759 82.3906 114.052C82.8893 114.345 83.4173 114.492 83.9746 114.492C84.5466 114.492 85.082 114.353 85.5806 114.074C86.0793 113.781 86.4753 113.37 86.7686 112.842C87.062 112.299 87.2086 111.654 87.2086 110.906ZM104.825 104.812V117H101.723V115.46C101.327 115.988 100.806 116.406 100.161 116.714C99.5301 117.007 98.8408 117.154 98.0928 117.154C97.1394 117.154 96.2961 116.956 95.5628 116.56C94.8294 116.149 94.2501 115.555 93.8248 114.778C93.4141 113.986 93.2088 113.047 93.2088 111.962V104.812H96.2888V111.522C96.2888 112.49 96.5308 113.238 97.0148 113.766C97.4988 114.279 98.1588 114.536 98.9948 114.536C99.8454 114.536 100.513 114.279 100.997 113.766C101.481 113.238 101.723 112.49 101.723 111.522V104.812H104.825ZM119.194 110.642C119.194 111.082 119.164 111.478 119.106 111.83H110.196C110.269 112.71 110.577 113.399 111.12 113.898C111.662 114.397 112.33 114.646 113.122 114.646C114.266 114.646 115.08 114.155 115.564 113.172H118.886C118.534 114.345 117.859 115.313 116.862 116.076C115.864 116.824 114.64 117.198 113.188 117.198C112.014 117.198 110.958 116.941 110.02 116.428C109.096 115.9 108.37 115.159 107.842 114.206C107.328 113.253 107.072 112.153 107.072 110.906C107.072 109.645 107.328 108.537 107.842 107.584C108.355 106.631 109.074 105.897 109.998 105.384C110.922 104.871 111.985 104.614 113.188 104.614C114.346 104.614 115.38 104.863 116.29 105.362C117.214 105.861 117.925 106.572 118.424 107.496C118.937 108.405 119.194 109.454 119.194 110.642ZM116.004 109.762C115.989 108.97 115.703 108.339 115.146 107.87C114.588 107.386 113.906 107.144 113.1 107.144C112.337 107.144 111.692 107.379 111.164 107.848C110.65 108.303 110.335 108.941 110.218 109.762H116.004ZM141.82 104.636C143.316 104.636 144.519 105.098 145.428 106.022C146.352 106.931 146.814 108.207 146.814 109.85V117H143.734V110.268C143.734 109.315 143.492 108.589 143.008 108.09C142.524 107.577 141.864 107.32 141.028 107.32C140.192 107.32 139.525 107.577 139.026 108.09C138.542 108.589 138.3 109.315 138.3 110.268V117H135.22V110.268C135.22 109.315 134.978 108.589 134.494 108.09C134.01 107.577 133.35 107.32 132.514 107.32C131.663 107.32 130.989 107.577 130.49 108.09C130.006 108.589 129.764 109.315 129.764 110.268V117H126.684V104.812H129.764V106.286C130.16 105.773 130.666 105.369 131.282 105.076C131.913 104.783 132.602 104.636 133.35 104.636C134.303 104.636 135.154 104.841 135.902 105.252C136.65 105.648 137.229 106.22 137.64 106.968C138.036 106.264 138.608 105.699 139.356 105.274C140.119 104.849 140.94 104.636 141.82 104.636ZM148.945 110.862C148.945 109.63 149.187 108.537 149.671 107.584C150.169 106.631 150.837 105.897 151.673 105.384C152.523 104.871 153.469 104.614 154.511 104.614C155.42 104.614 156.212 104.797 156.887 105.164C157.576 105.531 158.126 105.993 158.537 106.55V104.812H161.639V117H158.537V115.218C158.141 115.79 157.591 116.267 156.887 116.648C156.197 117.015 155.398 117.198 154.489 117.198C153.462 117.198 152.523 116.934 151.673 116.406C150.837 115.878 150.169 115.137 149.671 114.184C149.187 113.216 148.945 112.109 148.945 110.862ZM158.537 110.906C158.537 110.158 158.39 109.52 158.097 108.992C157.803 108.449 157.407 108.039 156.909 107.76C156.41 107.467 155.875 107.32 155.303 107.32C154.731 107.32 154.203 107.459 153.719 107.738C153.235 108.017 152.839 108.427 152.531 108.97C152.237 109.498 152.091 110.129 152.091 110.862C152.091 111.595 152.237 112.241 152.531 112.798C152.839 113.341 153.235 113.759 153.719 114.052C154.217 114.345 154.745 114.492 155.303 114.492C155.875 114.492 156.41 114.353 156.909 114.074C157.407 113.781 157.803 113.37 158.097 112.842C158.39 112.299 158.537 111.654 158.537 110.906ZM166.209 103.36C165.666 103.36 165.212 103.191 164.845 102.854C164.493 102.502 164.317 102.069 164.317 101.556C164.317 101.043 164.493 100.617 164.845 100.28C165.212 99.928 165.666 99.752 166.209 99.752C166.752 99.752 167.199 99.928 167.551 100.28C167.918 100.617 168.101 101.043 168.101 101.556C168.101 102.069 167.918 102.502 167.551 102.854C167.199 103.191 166.752 103.36 166.209 103.36ZM167.727 104.812V117H164.647V104.812H167.727ZM175.434 117.198C174.437 117.198 173.542 117.022 172.75 116.67C171.958 116.303 171.327 115.812 170.858 115.196C170.403 114.58 170.154 113.898 170.11 113.15H173.212C173.271 113.619 173.498 114.008 173.894 114.316C174.305 114.624 174.811 114.778 175.412 114.778C175.999 114.778 176.453 114.661 176.776 114.426C177.113 114.191 177.282 113.891 177.282 113.524C177.282 113.128 177.077 112.835 176.666 112.644C176.27 112.439 175.632 112.219 174.752 111.984C173.843 111.764 173.095 111.537 172.508 111.302C171.936 111.067 171.437 110.708 171.012 110.224C170.601 109.74 170.396 109.087 170.396 108.266C170.396 107.591 170.587 106.975 170.968 106.418C171.364 105.861 171.921 105.421 172.64 105.098C173.373 104.775 174.231 104.614 175.214 104.614C176.666 104.614 177.825 104.981 178.69 105.714C179.555 106.433 180.032 107.408 180.12 108.64H177.172C177.128 108.156 176.923 107.775 176.556 107.496C176.204 107.203 175.727 107.056 175.126 107.056C174.569 107.056 174.136 107.159 173.828 107.364C173.535 107.569 173.388 107.855 173.388 108.222C173.388 108.633 173.593 108.948 174.004 109.168C174.415 109.373 175.053 109.586 175.918 109.806C176.798 110.026 177.524 110.253 178.096 110.488C178.668 110.723 179.159 111.089 179.57 111.588C179.995 112.072 180.215 112.717 180.23 113.524C180.23 114.228 180.032 114.859 179.636 115.416C179.255 115.973 178.697 116.413 177.964 116.736C177.245 117.044 176.402 117.198 175.434 117.198ZM6.99551 140.162L10.0755 130.812H13.3535L8.84351 143H5.10351L0.615508 130.812H3.91551L6.99551 140.162ZM14.2914 136.862C14.2914 135.63 14.5334 134.537 15.0174 133.584C15.5161 132.631 16.1834 131.897 17.0194 131.384C17.8701 130.871 18.8161 130.614 19.8574 130.614C20.7668 130.614 21.5588 130.797 22.2334 131.164C22.9228 131.531 23.4728 131.993 23.8834 132.55V130.812H26.9854V143H23.8834V141.218C23.4874 141.79 22.9374 142.267 22.2334 142.648C21.5441 143.015 20.7448 143.198 19.8354 143.198C18.8088 143.198 17.8701 142.934 17.0194 142.406C16.1834 141.878 15.5161 141.137 15.0174 140.184C14.5334 139.216 14.2914 138.109 14.2914 136.862ZM23.8834 136.906C23.8834 136.158 23.7368 135.52 23.4434 134.992C23.1501 134.449 22.7541 134.039 22.2554 133.76C21.7568 133.467 21.2214 133.32 20.6494 133.32C20.0774 133.32 19.5494 133.459 19.0654 133.738C18.5814 134.017 18.1854 134.427 17.8774 134.97C17.5841 135.498 17.4374 136.129 17.4374 136.862C17.4374 137.595 17.5841 138.241 17.8774 138.798C18.1854 139.341 18.5814 139.759 19.0654 140.052C19.5641 140.345 20.0921 140.492 20.6494 140.492C21.2214 140.492 21.7568 140.353 22.2554 140.074C22.7541 139.781 23.1501 139.37 23.4434 138.842C23.7368 138.299 23.8834 137.654 23.8834 136.906ZM33.0736 126.72V143H29.9936V126.72H33.0736ZM41.5286 143.198C40.3553 143.198 39.2993 142.941 38.3606 142.428C37.422 141.9 36.6813 141.159 36.1386 140.206C35.6106 139.253 35.3466 138.153 35.3466 136.906C35.3466 135.659 35.618 134.559 36.1606 133.606C36.718 132.653 37.4733 131.919 38.4266 131.406C39.38 130.878 40.4433 130.614 41.6166 130.614C42.79 130.614 43.8533 130.878 44.8066 131.406C45.76 131.919 46.508 132.653 47.0506 133.606C47.608 134.559 47.8866 135.659 47.8866 136.906C47.8866 138.153 47.6006 139.253 47.0286 140.206C46.4713 141.159 45.7086 141.9 44.7406 142.428C43.7873 142.941 42.7166 143.198 41.5286 143.198ZM41.5286 140.514C42.086 140.514 42.6066 140.382 43.0906 140.118C43.5893 139.839 43.9853 139.429 44.2786 138.886C44.572 138.343 44.7186 137.683 44.7186 136.906C44.7186 135.747 44.4106 134.86 43.7946 134.244C43.1933 133.613 42.4526 133.298 41.5726 133.298C40.6926 133.298 39.952 133.613 39.3506 134.244C38.764 134.86 38.4706 135.747 38.4706 136.906C38.4706 138.065 38.7566 138.959 39.3286 139.59C39.9153 140.206 40.6486 140.514 41.5286 140.514ZM53.2259 132.704C53.6219 132.059 54.1353 131.553 54.7659 131.186C55.4113 130.819 56.1446 130.636 56.9659 130.636V133.87H56.1519C55.1839 133.87 54.4506 134.097 53.9519 134.552C53.4679 135.007 53.2259 135.799 53.2259 136.928V143H50.1459V130.812H53.2259V132.704ZM63.4906 136.862C63.4906 135.63 63.7326 134.537 64.2166 133.584C64.7153 132.631 65.3826 131.897 66.2186 131.384C67.0693 130.871 68.0153 130.614 69.0566 130.614C69.966 130.614 70.758 130.797 71.4326 131.164C72.122 131.531 72.672 131.993 73.0826 132.55V130.812H76.1846V143H73.0826V141.218C72.6866 141.79 72.1366 142.267 71.4326 142.648C70.7433 143.015 69.944 143.198 69.0346 143.198C68.008 143.198 67.0693 142.934 66.2186 142.406C65.3826 141.878 64.7153 141.137 64.2166 140.184C63.7326 139.216 63.4906 138.109 63.4906 136.862ZM73.0826 136.906C73.0826 136.158 72.936 135.52 72.6426 134.992C72.3493 134.449 71.9533 134.039 71.4546 133.76C70.956 133.467 70.4206 133.32 69.8486 133.32C69.2766 133.32 68.7486 133.459 68.2646 133.738C67.7806 134.017 67.3846 134.427 67.0766 134.97C66.7833 135.498 66.6366 136.129 66.6366 136.862C66.6366 137.595 66.7833 138.241 67.0766 138.798C67.3846 139.341 67.7806 139.759 68.2646 140.052C68.7633 140.345 69.2913 140.492 69.8486 140.492C70.4206 140.492 70.956 140.353 71.4546 140.074C71.9533 139.781 72.3493 139.37 72.6426 138.842C72.936 138.299 73.0826 137.654 73.0826 136.906ZM72.6646 127.754V129.954L67.6046 127.644V125.136L72.6646 127.754ZM89.099 143.198C88.1017 143.198 87.207 143.022 86.415 142.67C85.623 142.303 84.9923 141.812 84.523 141.196C84.0683 140.58 83.819 139.898 83.775 139.15H86.877C86.9357 139.619 87.163 140.008 87.559 140.316C87.9697 140.624 88.4757 140.778 89.077 140.778C89.6637 140.778 90.1183 140.661 90.441 140.426C90.7783 140.191 90.947 139.891 90.947 139.524C90.947 139.128 90.7417 138.835 90.331 138.644C89.935 138.439 89.297 138.219 88.417 137.984C87.5077 137.764 86.7597 137.537 86.173 137.302C85.601 137.067 85.1023 136.708 84.677 136.224C84.2663 135.74 84.061 135.087 84.061 134.266C84.061 133.591 84.2517 132.975 84.633 132.418C85.029 131.861 85.5863 131.421 86.305 131.098C87.0383 130.775 87.8963 130.614 88.879 130.614C90.331 130.614 91.4897 130.981 92.355 131.714C93.2203 132.433 93.697 133.408 93.785 134.64H90.837C90.793 134.156 90.5877 133.775 90.221 133.496C89.869 133.203 89.3923 133.056 88.791 133.056C88.2337 133.056 87.801 133.159 87.493 133.364C87.1997 133.569 87.053 133.855 87.053 134.222C87.053 134.633 87.2583 134.948 87.669 135.168C88.0797 135.373 88.7177 135.586 89.583 135.806C90.463 136.026 91.189 136.253 91.761 136.488C92.333 136.723 92.8243 137.089 93.235 137.588C93.6603 138.072 93.8803 138.717 93.895 139.524C93.895 140.228 93.697 140.859 93.301 141.416C92.9197 141.973 92.3623 142.413 91.629 142.736C90.9103 143.044 90.067 143.198 89.099 143.198ZM107.929 130.812V143H104.827V141.46C104.431 141.988 103.911 142.406 103.265 142.714C102.635 143.007 101.945 143.154 101.197 143.154C100.244 143.154 99.4006 142.956 98.6673 142.56C97.9339 142.149 97.3546 141.555 96.9293 140.778C96.5186 139.986 96.3133 139.047 96.3133 137.962V130.812H99.3933V137.522C99.3933 138.49 99.6353 139.238 100.119 139.766C100.603 140.279 101.263 140.536 102.099 140.536C102.95 140.536 103.617 140.279 104.101 139.766C104.585 139.238 104.827 138.49 104.827 137.522V130.812H107.929ZM110.176 136.862C110.176 135.63 110.418 134.537 110.902 133.584C111.401 132.631 112.068 131.897 112.904 131.384C113.755 130.871 114.701 130.614 115.742 130.614C116.652 130.614 117.444 130.797 118.118 131.164C118.808 131.531 119.358 131.993 119.768 132.55V130.812H122.87V143H119.768V141.218C119.372 141.79 118.822 142.267 118.118 142.648C117.429 143.015 116.63 143.198 115.72 143.198C114.694 143.198 113.755 142.934 112.904 142.406C112.068 141.878 111.401 141.137 110.902 140.184C110.418 139.216 110.176 138.109 110.176 136.862ZM119.768 136.906C119.768 136.158 119.622 135.52 119.328 134.992C119.035 134.449 118.639 134.039 118.14 133.76C117.642 133.467 117.106 133.32 116.534 133.32C115.962 133.32 115.434 133.459 114.95 133.738C114.466 134.017 114.07 134.427 113.762 134.97C113.469 135.498 113.322 136.129 113.322 136.862C113.322 137.595 113.469 138.241 113.762 138.798C114.07 139.341 114.466 139.759 114.95 140.052C115.449 140.345 115.977 140.492 116.534 140.492C117.106 140.492 117.642 140.353 118.14 140.074C118.639 139.781 119.035 139.37 119.328 138.842C119.622 138.299 119.768 137.654 119.768 136.906ZM146.257 130.636C147.753 130.636 148.955 131.098 149.865 132.022C150.789 132.931 151.251 134.207 151.251 135.85V143H148.171V136.268C148.171 135.315 147.929 134.589 147.445 134.09C146.961 133.577 146.301 133.32 145.465 133.32C144.629 133.32 143.961 133.577 143.463 134.09C142.979 134.589 142.737 135.315 142.737 136.268V143H139.657V136.268C139.657 135.315 139.415 134.589 138.931 134.09C138.447 133.577 137.787 133.32 136.951 133.32C136.1 133.32 135.425 133.577 134.927 134.09C134.443 134.589 134.201 135.315 134.201 136.268V143H131.121V130.812H134.201V132.286C134.597 131.773 135.103 131.369 135.719 131.076C136.349 130.783 137.039 130.636 137.787 130.636C138.74 130.636 139.591 130.841 140.339 131.252C141.087 131.648 141.666 132.22 142.077 132.968C142.473 132.264 143.045 131.699 143.793 131.274C144.555 130.849 145.377 130.636 146.257 130.636ZM153.381 136.862C153.381 135.63 153.623 134.537 154.107 133.584C154.606 132.631 155.273 131.897 156.109 131.384C156.96 130.871 157.906 130.614 158.947 130.614C159.857 130.614 160.649 130.797 161.323 131.164C162.013 131.531 162.563 131.993 162.973 132.55V130.812H166.075V143H162.973V141.218C162.577 141.79 162.027 142.267 161.323 142.648C160.634 143.015 159.835 143.198 158.925 143.198C157.899 143.198 156.96 142.934 156.109 142.406C155.273 141.878 154.606 141.137 154.107 140.184C153.623 139.216 153.381 138.109 153.381 136.862ZM162.973 136.906C162.973 136.158 162.827 135.52 162.533 134.992C162.24 134.449 161.844 134.039 161.345 133.76C160.847 133.467 160.311 133.32 159.739 133.32C159.167 133.32 158.639 133.459 158.155 133.738C157.671 134.017 157.275 134.427 156.967 134.97C156.674 135.498 156.527 136.129 156.527 136.862C156.527 137.595 156.674 138.241 156.967 138.798C157.275 139.341 157.671 139.759 158.155 140.052C158.654 140.345 159.182 140.492 159.739 140.492C160.311 140.492 160.847 140.353 161.345 140.074C161.844 139.781 162.24 139.37 162.533 138.842C162.827 138.299 162.973 137.654 162.973 136.906ZM172.163 132.704C172.559 132.059 173.073 131.553 173.703 131.186C174.349 130.819 175.082 130.636 175.903 130.636V133.87H175.089C174.121 133.87 173.388 134.097 172.889 134.552C172.405 135.007 172.163 135.799 172.163 136.928V143H169.083V130.812H172.163V132.704ZM177.186 136.906C177.186 135.645 177.443 134.545 177.956 133.606C178.469 132.653 179.181 131.919 180.09 131.406C180.999 130.878 182.041 130.614 183.214 130.614C184.725 130.614 185.971 130.995 186.954 131.758C187.951 132.506 188.619 133.562 188.956 134.926H185.634C185.458 134.398 185.157 133.987 184.732 133.694C184.321 133.386 183.808 133.232 183.192 133.232C182.312 133.232 181.615 133.555 181.102 134.2C180.589 134.831 180.332 135.733 180.332 136.906C180.332 138.065 180.589 138.967 181.102 139.612C181.615 140.243 182.312 140.558 183.192 140.558C184.439 140.558 185.253 140.001 185.634 138.886H188.956C188.619 140.206 187.951 141.255 186.954 142.032C185.957 142.809 184.71 143.198 183.214 143.198C182.041 143.198 180.999 142.941 180.09 142.428C179.181 141.9 178.469 141.167 177.956 140.228C177.443 139.275 177.186 138.167 177.186 136.906ZM190.42 136.862C190.42 135.63 190.662 134.537 191.146 133.584C191.645 132.631 192.312 131.897 193.148 131.384C193.999 130.871 194.945 130.614 195.986 130.614C196.896 130.614 197.688 130.797 198.362 131.164C199.052 131.531 199.602 131.993 200.012 132.55V130.812H203.114V143H200.012V141.218C199.616 141.79 199.066 142.267 198.362 142.648C197.673 143.015 196.874 143.198 195.964 143.198C194.938 143.198 193.999 142.934 193.148 142.406C192.312 141.878 191.645 141.137 191.146 140.184C190.662 139.216 190.42 138.109 190.42 136.862ZM200.012 136.906C200.012 136.158 199.866 135.52 199.572 134.992C199.279 134.449 198.883 134.039 198.384 133.76C197.886 133.467 197.35 133.32 196.778 133.32C196.206 133.32 195.678 133.459 195.194 133.738C194.71 134.017 194.314 134.427 194.006 134.97C193.713 135.498 193.566 136.129 193.566 136.862C193.566 137.595 193.713 138.241 194.006 138.798C194.314 139.341 194.71 139.759 195.194 140.052C195.693 140.345 196.221 140.492 196.778 140.492C197.35 140.492 197.886 140.353 198.384 140.074C198.883 139.781 199.279 139.37 199.572 138.842C199.866 138.299 200.012 137.654 200.012 136.906Z" fill="#FFFFFA"/>
<path d="M133.081 66.0428L130.891 63.1086H74.8231L72.6338 66.0428H133.078H133.081ZM111.902 23.7135H120.956L118.743 21.1453C118.201 20.5167 118.218 19.5932 118.752 18.9861L120.956 16.4265H111.902V23.7135ZM124.543 27.0094H111.902V32.1286L132.999 60.4263C133.025 60.4586 133.05 60.4909 133.074 60.5253L137.644 66.6563C137.873 66.9383 138.01 67.2978 138.01 67.6918C138.01 68.6002 137.272 69.3386 136.361 69.3386H69.353C69.0108 69.3386 68.6642 69.231 68.3692 69.0093C67.6395 68.4668 67.4909 67.4335 68.0334 66.7058L72.6403 60.5275C72.664 60.4909 72.6898 60.4586 72.7156 60.4263L88.7083 38.9743C88.8052 38.8408 88.9236 38.7181 89.0635 38.6126C89.7933 38.068 90.8244 38.2187 91.3669 38.9484L97.4441 47.1009L108.606 32.1286V25.3625V14.7797C108.606 13.8712 109.344 13.1328 110.253 13.1328H124.543V13.1371C124.924 13.1371 125.307 13.2684 125.617 13.5375C126.304 14.1317 126.379 15.1671 125.785 15.8539L122.151 20.0689L125.703 24.1893C126.004 24.4885 126.192 24.9018 126.192 25.3604C126.192 26.271 125.453 27.0072 124.543 27.0072V27.0094ZM128.433 59.8128L110.253 35.4266L98.7637 50.838C98.2213 51.5656 97.1879 51.7163 96.4603 51.1738C96.3204 51.0705 96.202 50.9456 96.1051 50.8122L90.0473 42.6877L77.2794 59.8149H128.435L128.433 59.8128Z" fill="white"/>
</svg>
