<svg width="248" height="149" viewBox="0 0 248 149" fill="none" xmlns="http://www.w3.org/2000/svg">
<path d="M11.2592 114.074H5.1432L4.1312 117H0.897195L6.4192 101.622H10.0052L15.5272 117H12.2712L11.2592 114.074ZM10.4232 111.61L8.2012 105.186L5.9792 111.61H10.4232ZM29.0972 104.812V117H25.9952V115.46C25.5992 115.988 25.0786 116.406 24.4332 116.714C23.8026 117.007 23.1132 117.154 22.3652 117.154C21.4119 117.154 20.5686 116.956 19.8352 116.56C19.1019 116.149 18.5226 115.555 18.0972 114.778C17.6866 113.986 17.4812 113.047 17.4812 111.962V104.812H20.5612V111.522C20.5612 112.49 20.8032 113.238 21.2872 113.766C21.7712 114.279 22.4312 114.536 23.2672 114.536C24.1179 114.536 24.7852 114.279 25.2692 113.766C25.7532 113.238 25.9952 112.49 25.9952 111.522V104.812H29.0972ZM47.2722 104.636C48.7682 104.636 49.9708 105.098 50.8802 106.022C51.8042 106.931 52.2662 108.207 52.2662 109.85V117H49.1862V110.268C49.1862 109.315 48.9442 108.589 48.4602 108.09C47.9762 107.577 47.3162 107.32 46.4802 107.32C45.6442 107.32 44.9768 107.577 44.4782 108.09C43.9942 108.589 43.7522 109.315 43.7522 110.268V117H40.6722V110.268C40.6722 109.315 40.4302 108.589 39.9462 108.09C39.4622 107.577 38.8022 107.32 37.9662 107.32C37.1155 107.32 36.4408 107.577 35.9422 108.09C35.4582 108.589 35.2162 109.315 35.2162 110.268V117H32.1362V104.812H35.2162V106.286C35.6122 105.773 36.1182 105.369 36.7342 105.076C37.3648 104.783 38.0542 104.636 38.8022 104.636C39.7555 104.636 40.6062 104.841 41.3542 105.252C42.1022 105.648 42.6815 106.22 43.0922 106.968C43.4882 106.264 44.0602 105.699 44.8082 105.274C45.5708 104.849 46.3922 104.636 47.2722 104.636ZM66.5189 110.642C66.5189 111.082 66.4896 111.478 66.4309 111.83H57.5209C57.5942 112.71 57.9022 113.399 58.4449 113.898C58.9876 114.397 59.6549 114.646 60.4469 114.646C61.5909 114.646 62.4049 114.155 62.8889 113.172H66.2109C65.8589 114.345 65.1842 115.313 64.1869 116.076C63.1896 116.824 61.9649 117.198 60.5129 117.198C59.3396 117.198 58.2836 116.941 57.3449 116.428C56.4209 115.9 55.6949 115.159 55.1669 114.206C54.6536 113.253 54.3969 112.153 54.3969 110.906C54.3969 109.645 54.6536 108.537 55.1669 107.584C55.6802 106.631 56.3989 105.897 57.3229 105.384C58.2469 104.871 59.3102 104.614 60.5129 104.614C61.6716 104.614 62.7056 104.863 63.6149 105.362C64.5389 105.861 65.2502 106.572 65.7489 107.496C66.2622 108.405 66.5189 109.454 66.5189 110.642ZM63.3289 109.762C63.3142 108.97 63.0282 108.339 62.4709 107.87C61.9136 107.386 61.2316 107.144 60.4249 107.144C59.6622 107.144 59.0169 107.379 58.4889 107.848C57.9756 108.303 57.6602 108.941 57.5429 109.762H63.3289ZM75.521 104.636C76.973 104.636 78.1464 105.098 79.041 106.022C79.9357 106.931 80.383 108.207 80.383 109.85V117H77.303V110.268C77.303 109.3 77.061 108.559 76.577 108.046C76.093 107.518 75.433 107.254 74.597 107.254C73.7464 107.254 73.0717 107.518 72.573 108.046C72.089 108.559 71.847 109.3 71.847 110.268V117H68.767V104.812H71.847V106.33C72.2577 105.802 72.7784 105.391 73.409 105.098C74.0544 104.79 74.7584 104.636 75.521 104.636ZM86.8979 107.342V113.238C86.8979 113.649 86.9933 113.949 87.1839 114.14C87.3893 114.316 87.7266 114.404 88.1959 114.404H89.6259V117H87.6899C85.0939 117 83.7959 115.739 83.7959 113.216V107.342H82.3439V104.812H83.7959V101.798H86.8979V104.812H89.6259V107.342H86.8979ZM103.171 110.642C103.171 111.082 103.142 111.478 103.083 111.83H94.1732C94.2466 112.71 94.5546 113.399 95.0972 113.898C95.6399 114.397 96.3072 114.646 97.0992 114.646C98.2432 114.646 99.0572 114.155 99.5412 113.172H102.863C102.511 114.345 101.837 115.313 100.839 116.076C99.8419 116.824 98.6172 117.198 97.1652 117.198C95.9919 117.198 94.9359 116.941 93.9972 116.428C93.0732 115.9 92.3472 115.159 91.8192 114.206C91.3059 113.253 91.0492 112.153 91.0492 110.906C91.0492 109.645 91.3059 108.537 91.8192 107.584C92.3326 106.631 93.0512 105.897 93.9752 105.384C94.8992 104.871 95.9626 104.614 97.1652 104.614C98.3239 104.614 99.3579 104.863 100.267 105.362C101.191 105.861 101.903 106.572 102.401 107.496C102.915 108.405 103.171 109.454 103.171 110.642ZM99.9812 109.762C99.9666 108.97 99.6806 108.339 99.1232 107.87C98.5659 107.386 97.8839 107.144 97.0772 107.144C96.3146 107.144 95.6692 107.379 95.1412 107.848C94.6279 108.303 94.3126 108.941 94.1952 109.762H99.9812ZM109.87 110.862C109.87 109.63 110.112 108.537 110.596 107.584C111.094 106.631 111.762 105.897 112.598 105.384C113.448 104.871 114.394 104.614 115.436 104.614C116.345 104.614 117.137 104.797 117.812 105.164C118.501 105.531 119.051 105.993 119.462 106.55V104.812H122.564V117H119.462V115.218C119.066 115.79 118.516 116.267 117.812 116.648C117.122 117.015 116.323 117.198 115.414 117.198C114.387 117.198 113.448 116.934 112.598 116.406C111.762 115.878 111.094 115.137 110.596 114.184C110.112 113.216 109.87 112.109 109.87 110.862ZM119.462 110.906C119.462 110.158 119.315 109.52 119.022 108.992C118.728 108.449 118.332 108.039 117.834 107.76C117.335 107.467 116.8 107.32 116.228 107.32C115.656 107.32 115.128 107.459 114.644 107.738C114.16 108.017 113.764 108.427 113.456 108.97C113.162 109.498 113.016 110.129 113.016 110.862C113.016 111.595 113.162 112.241 113.456 112.798C113.764 113.341 114.16 113.759 114.644 114.052C115.142 114.345 115.67 114.492 116.228 114.492C116.8 114.492 117.335 114.353 117.834 114.074C118.332 113.781 118.728 113.37 119.022 112.842C119.315 112.299 119.462 111.654 119.462 110.906ZM130.022 110.906C130.022 109.645 130.279 108.545 130.792 107.606C131.305 106.653 132.017 105.919 132.926 105.406C133.835 104.878 134.877 104.614 136.05 104.614C137.561 104.614 138.807 104.995 139.79 105.758C140.787 106.506 141.455 107.562 141.792 108.926H138.47C138.294 108.398 137.993 107.987 137.568 107.694C137.157 107.386 136.644 107.232 136.028 107.232C135.148 107.232 134.451 107.555 133.938 108.2C133.425 108.831 133.168 109.733 133.168 110.906C133.168 112.065 133.425 112.967 133.938 113.612C134.451 114.243 135.148 114.558 136.028 114.558C137.275 114.558 138.089 114.001 138.47 112.886H141.792C141.455 114.206 140.787 115.255 139.79 116.032C138.793 116.809 137.546 117.198 136.05 117.198C134.877 117.198 133.835 116.941 132.926 116.428C132.017 115.9 131.305 115.167 130.792 114.228C130.279 113.275 130.022 112.167 130.022 110.906ZM149.46 117.198C148.287 117.198 147.231 116.941 146.292 116.428C145.354 115.9 144.613 115.159 144.07 114.206C143.542 113.253 143.278 112.153 143.278 110.906C143.278 109.659 143.55 108.559 144.092 107.606C144.65 106.653 145.405 105.919 146.358 105.406C147.312 104.878 148.375 104.614 149.548 104.614C150.722 104.614 151.785 104.878 152.738 105.406C153.692 105.919 154.44 106.653 154.982 107.606C155.54 108.559 155.818 109.659 155.818 110.906C155.818 112.153 155.532 113.253 154.96 114.206C154.403 115.159 153.64 115.9 152.672 116.428C151.719 116.941 150.648 117.198 149.46 117.198ZM149.46 114.514C150.018 114.514 150.538 114.382 151.022 114.118C151.521 113.839 151.917 113.429 152.21 112.886C152.504 112.343 152.65 111.683 152.65 110.906C152.65 109.747 152.342 108.86 151.726 108.244C151.125 107.613 150.384 107.298 149.504 107.298C148.624 107.298 147.884 107.613 147.282 108.244C146.696 108.86 146.402 109.747 146.402 110.906C146.402 112.065 146.688 112.959 147.26 113.59C147.847 114.206 148.58 114.514 149.46 114.514ZM164.832 104.636C166.284 104.636 167.457 105.098 168.352 106.022C169.246 106.931 169.694 108.207 169.694 109.85V117H166.614V110.268C166.614 109.3 166.372 108.559 165.888 108.046C165.404 107.518 164.744 107.254 163.908 107.254C163.057 107.254 162.382 107.518 161.884 108.046C161.4 108.559 161.158 109.3 161.158 110.268V117H158.078V104.812H161.158V106.33C161.568 105.802 162.089 105.391 162.72 105.098C163.365 104.79 164.069 104.636 164.832 104.636ZM177.704 114.162L180.784 104.812H184.062L179.552 117H175.812L171.324 104.812H174.624L177.704 114.162ZM197.122 110.642C197.122 111.082 197.093 111.478 197.034 111.83H188.124C188.198 112.71 188.506 113.399 189.048 113.898C189.591 114.397 190.258 114.646 191.05 114.646C192.194 114.646 193.008 114.155 193.492 113.172H196.814C196.462 114.345 195.788 115.313 194.79 116.076C193.793 116.824 192.568 117.198 191.116 117.198C189.943 117.198 188.887 116.941 187.948 116.428C187.024 115.9 186.298 115.159 185.77 114.206C185.257 113.253 185 112.153 185 110.906C185 109.645 185.257 108.537 185.77 107.584C186.284 106.631 187.002 105.897 187.926 105.384C188.85 104.871 189.914 104.614 191.116 104.614C192.275 104.614 193.309 104.863 194.218 105.362C195.142 105.861 195.854 106.572 196.352 107.496C196.866 108.405 197.122 109.454 197.122 110.642ZM193.932 109.762C193.918 108.97 193.632 108.339 193.074 107.87C192.517 107.386 191.835 107.144 191.028 107.144C190.266 107.144 189.62 107.379 189.092 107.848C188.579 108.303 188.264 108.941 188.146 109.762H193.932ZM202.451 106.704C202.847 106.059 203.36 105.553 203.991 105.186C204.636 104.819 205.369 104.636 206.191 104.636V107.87H205.377C204.409 107.87 203.675 108.097 203.177 108.552C202.693 109.007 202.451 109.799 202.451 110.928V117H199.371V104.812H202.451V106.704ZM212.929 117.198C211.932 117.198 211.037 117.022 210.245 116.67C209.453 116.303 208.822 115.812 208.353 115.196C207.898 114.58 207.649 113.898 207.605 113.15H210.707C210.766 113.619 210.993 114.008 211.389 114.316C211.8 114.624 212.306 114.778 212.907 114.778C213.494 114.778 213.948 114.661 214.271 114.426C214.608 114.191 214.777 113.891 214.777 113.524C214.777 113.128 214.572 112.835 214.161 112.644C213.765 112.439 213.127 112.219 212.247 111.984C211.338 111.764 210.59 111.537 210.003 111.302C209.431 111.067 208.932 110.708 208.507 110.224C208.096 109.74 207.891 109.087 207.891 108.266C207.891 107.591 208.082 106.975 208.463 106.418C208.859 105.861 209.416 105.421 210.135 105.098C210.868 104.775 211.726 104.614 212.709 104.614C214.161 104.614 215.32 104.981 216.185 105.714C217.05 106.433 217.527 107.408 217.615 108.64H214.667C214.623 108.156 214.418 107.775 214.051 107.496C213.699 107.203 213.222 107.056 212.621 107.056C212.064 107.056 211.631 107.159 211.323 107.364C211.03 107.569 210.883 107.855 210.883 108.222C210.883 108.633 211.088 108.948 211.499 109.168C211.91 109.373 212.548 109.586 213.413 109.806C214.293 110.026 215.019 110.253 215.591 110.488C216.163 110.723 216.654 111.089 217.065 111.588C217.49 112.072 217.71 112.717 217.725 113.524C217.725 114.228 217.527 114.859 217.131 115.416C216.75 115.973 216.192 116.413 215.459 116.736C214.74 117.044 213.897 117.198 212.929 117.198ZM219.461 110.862C219.461 109.63 219.703 108.537 220.187 107.584C220.686 106.631 221.353 105.897 222.189 105.384C223.04 104.871 223.986 104.614 225.027 104.614C225.937 104.614 226.729 104.797 227.403 105.164C228.093 105.531 228.643 105.993 229.053 106.55V104.812H232.155V117H229.053V115.218C228.657 115.79 228.107 116.267 227.403 116.648C226.714 117.015 225.915 117.198 225.005 117.198C223.979 117.198 223.04 116.934 222.189 116.406C221.353 115.878 220.686 115.137 220.187 114.184C219.703 113.216 219.461 112.109 219.461 110.862ZM229.053 110.906C229.053 110.158 228.907 109.52 228.613 108.992C228.32 108.449 227.924 108.039 227.425 107.76C226.927 107.467 226.391 107.32 225.819 107.32C225.247 107.32 224.719 107.459 224.235 107.738C223.751 108.017 223.355 108.427 223.047 108.97C222.754 109.498 222.607 110.129 222.607 110.862C222.607 111.595 222.754 112.241 223.047 112.798C223.355 113.341 223.751 113.759 224.235 114.052C224.734 114.345 225.262 114.492 225.819 114.492C226.391 114.492 226.927 114.353 227.425 114.074C227.924 113.781 228.32 113.37 228.613 112.842C228.907 112.299 229.053 111.654 229.053 110.906ZM222.277 103.646C222.409 102.678 222.71 101.959 223.179 101.49C223.663 101.006 224.272 100.764 225.005 100.764C225.313 100.764 225.585 100.815 225.819 100.918C226.054 101.006 226.318 101.138 226.611 101.314C227.051 101.593 227.418 101.732 227.711 101.732C228.254 101.732 228.569 101.417 228.657 100.786H230.307C230.175 101.754 229.867 102.48 229.383 102.964C228.914 103.433 228.313 103.668 227.579 103.668C227.271 103.668 227 103.624 226.765 103.536C226.531 103.433 226.267 103.294 225.973 103.118C225.548 102.825 225.181 102.678 224.873 102.678C224.331 102.678 224.008 103.001 223.905 103.646H222.277ZM240.576 117.198C239.402 117.198 238.346 116.941 237.408 116.428C236.469 115.9 235.728 115.159 235.186 114.206C234.658 113.253 234.394 112.153 234.394 110.906C234.394 109.659 234.665 108.559 235.208 107.606C235.765 106.653 236.52 105.919 237.474 105.406C238.427 104.878 239.49 104.614 240.664 104.614C241.837 104.614 242.9 104.878 243.854 105.406C244.807 105.919 245.555 106.653 246.098 107.606C246.655 108.559 246.934 109.659 246.934 110.906C246.934 112.153 246.648 113.253 246.076 114.206C245.518 115.159 244.756 115.9 243.788 116.428C242.834 116.941 241.764 117.198 240.576 117.198ZM240.576 114.514C241.133 114.514 241.654 114.382 242.138 114.118C242.636 113.839 243.032 113.429 243.326 112.886C243.619 112.343 243.766 111.683 243.766 110.906C243.766 109.747 243.458 108.86 242.842 108.244C242.24 107.613 241.5 107.298 240.62 107.298C239.74 107.298 238.999 107.613 238.398 108.244C237.811 108.86 237.518 109.747 237.518 110.906C237.518 112.065 237.804 112.959 238.376 113.59C238.962 114.206 239.696 114.514 240.576 114.514ZM22.1107 136.642C22.1107 137.082 22.0814 137.478 22.0227 137.83H13.1127C13.186 138.71 13.494 139.399 14.0367 139.898C14.5794 140.397 15.2467 140.646 16.0387 140.646C17.1827 140.646 17.9967 140.155 18.4807 139.172H21.8027C21.4507 140.345 20.776 141.313 19.7787 142.076C18.7814 142.824 17.5567 143.198 16.1047 143.198C14.9314 143.198 13.8754 142.941 12.9367 142.428C12.0127 141.9 11.2867 141.159 10.7587 140.206C10.2454 139.253 9.9887 138.153 9.9887 136.906C9.9887 135.645 10.2454 134.537 10.7587 133.584C11.272 132.631 11.9907 131.897 12.9147 131.384C13.8387 130.871 14.902 130.614 16.1047 130.614C17.2634 130.614 18.2974 130.863 19.2067 131.362C20.1307 131.861 20.842 132.572 21.3407 133.496C21.854 134.405 22.1107 135.454 22.1107 136.642ZM18.9207 135.762C18.906 134.97 18.62 134.339 18.0627 133.87C17.5054 133.386 16.8234 133.144 16.0167 133.144C15.254 133.144 14.6087 133.379 14.0807 133.848C13.5674 134.303 13.252 134.941 13.1347 135.762H18.9207ZM28.809 136.862C28.809 135.63 29.051 134.537 29.535 133.584C30.0337 132.631 30.701 131.897 31.537 131.384C32.3877 130.871 33.3337 130.614 34.375 130.614C35.2843 130.614 36.0763 130.797 36.751 131.164C37.4403 131.531 37.9903 131.993 38.401 132.55V130.812H41.503V143H38.401V141.218C38.005 141.79 37.455 142.267 36.751 142.648C36.0617 143.015 35.2623 143.198 34.353 143.198C33.3263 143.198 32.3877 142.934 31.537 142.406C30.701 141.878 30.0337 141.137 29.535 140.184C29.051 139.216 28.809 138.109 28.809 136.862ZM38.401 136.906C38.401 136.158 38.2543 135.52 37.961 134.992C37.6677 134.449 37.2717 134.039 36.773 133.76C36.2743 133.467 35.739 133.32 35.167 133.32C34.595 133.32 34.067 133.459 33.583 133.738C33.099 134.017 32.703 134.427 32.395 134.97C32.1017 135.498 31.955 136.129 31.955 136.862C31.955 137.595 32.1017 138.241 32.395 138.798C32.703 139.341 33.099 139.759 33.583 140.052C34.0817 140.345 34.6097 140.492 35.167 140.492C35.739 140.492 36.2743 140.353 36.773 140.074C37.2717 139.781 37.6677 139.37 37.961 138.842C38.2543 138.299 38.401 137.654 38.401 136.906ZM53.3394 133.342V139.238C53.3394 139.649 53.4347 139.949 53.6254 140.14C53.8307 140.316 54.168 140.404 54.6374 140.404H56.0674V143H54.1314C51.5354 143 50.2374 141.739 50.2374 139.216V133.342H48.7854V130.812H50.2374V127.798H53.3394V130.812H56.0674V133.342H53.3394ZM57.4906 136.862C57.4906 135.63 57.7326 134.537 58.2166 133.584C58.7153 132.631 59.3826 131.897 60.2186 131.384C61.0693 130.871 62.0153 130.614 63.0566 130.614C63.966 130.614 64.758 130.797 65.4326 131.164C66.122 131.531 66.672 131.993 67.0826 132.55V130.812H70.1846V143H67.0826V141.218C66.6866 141.79 66.1366 142.267 65.4326 142.648C64.7433 143.015 63.944 143.198 63.0346 143.198C62.008 143.198 61.0693 142.934 60.2186 142.406C59.3826 141.878 58.7153 141.137 58.2166 140.184C57.7326 139.216 57.4906 138.109 57.4906 136.862ZM67.0826 136.906C67.0826 136.158 66.936 135.52 66.6426 134.992C66.3493 134.449 65.9533 134.039 65.4546 133.76C64.956 133.467 64.4206 133.32 63.8486 133.32C63.2766 133.32 62.7486 133.459 62.2646 133.738C61.7806 134.017 61.3846 134.427 61.0766 134.97C60.7833 135.498 60.6366 136.129 60.6366 136.862C60.6366 137.595 60.7833 138.241 61.0766 138.798C61.3846 139.341 61.7806 139.759 62.2646 140.052C62.7633 140.345 63.2913 140.492 63.8486 140.492C64.4206 140.492 64.956 140.353 65.4546 140.074C65.9533 139.781 66.3493 139.37 66.6426 138.842C66.936 138.299 67.0826 137.654 67.0826 136.906ZM79.9248 143L77.4168 139.216L75.1948 143H71.8948L75.8768 136.884L71.8508 130.812H75.3268L77.8128 134.574L80.0568 130.812H83.3568L79.3528 136.884L83.4008 143H79.9248ZM84.2817 136.862C84.2817 135.63 84.5237 134.537 85.0077 133.584C85.5063 132.631 86.1737 131.897 87.0097 131.384C87.8603 130.871 88.8063 130.614 89.8477 130.614C90.757 130.614 91.549 130.797 92.2237 131.164C92.913 131.531 93.463 131.993 93.8737 132.55V130.812H96.9757V143H93.8737V141.218C93.4777 141.79 92.9277 142.267 92.2237 142.648C91.5343 143.015 90.735 143.198 89.8257 143.198C88.799 143.198 87.8603 142.934 87.0097 142.406C86.1737 141.878 85.5063 141.137 85.0077 140.184C84.5237 139.216 84.2817 138.109 84.2817 136.862ZM93.8737 136.906C93.8737 136.158 93.727 135.52 93.4337 134.992C93.1403 134.449 92.7443 134.039 92.2457 133.76C91.747 133.467 91.2117 133.32 90.6397 133.32C90.0677 133.32 89.5397 133.459 89.0557 133.738C88.5717 134.017 88.1757 134.427 87.8677 134.97C87.5743 135.498 87.4277 136.129 87.4277 136.862C87.4277 137.595 87.5743 138.241 87.8677 138.798C88.1757 139.341 88.5717 139.759 89.0557 140.052C89.5543 140.345 90.0823 140.492 90.6397 140.492C91.2117 140.492 91.747 140.353 92.2457 140.074C92.7443 139.781 93.1403 139.37 93.4337 138.842C93.727 138.299 93.8737 137.654 93.8737 136.906ZM104.434 136.862C104.434 135.63 104.676 134.537 105.16 133.584C105.659 132.631 106.333 131.897 107.184 131.384C108.035 130.871 108.981 130.614 110.022 130.614C110.814 130.614 111.569 130.79 112.288 131.142C113.007 131.479 113.579 131.934 114.004 132.506V126.72H117.128V143H114.004V141.196C113.623 141.797 113.087 142.281 112.398 142.648C111.709 143.015 110.909 143.198 110 143.198C108.973 143.198 108.035 142.934 107.184 142.406C106.333 141.878 105.659 141.137 105.16 140.184C104.676 139.216 104.434 138.109 104.434 136.862ZM114.026 136.906C114.026 136.158 113.879 135.52 113.586 134.992C113.293 134.449 112.897 134.039 112.398 133.76C111.899 133.467 111.364 133.32 110.792 133.32C110.22 133.32 109.692 133.459 109.208 133.738C108.724 134.017 108.328 134.427 108.02 134.97C107.727 135.498 107.58 136.129 107.58 136.862C107.58 137.595 107.727 138.241 108.02 138.798C108.328 139.341 108.724 139.759 109.208 140.052C109.707 140.345 110.235 140.492 110.792 140.492C111.364 140.492 111.899 140.353 112.398 140.074C112.897 139.781 113.293 139.37 113.586 138.842C113.879 138.299 114.026 137.654 114.026 136.906ZM131.466 136.642C131.466 137.082 131.437 137.478 131.378 137.83H122.468C122.541 138.71 122.849 139.399 123.392 139.898C123.935 140.397 124.602 140.646 125.394 140.646C126.538 140.646 127.352 140.155 127.836 139.172H131.158C130.806 140.345 130.131 141.313 129.134 142.076C128.137 142.824 126.912 143.198 125.46 143.198C124.287 143.198 123.231 142.941 122.292 142.428C121.368 141.9 120.642 141.159 120.114 140.206C119.601 139.253 119.344 138.153 119.344 136.906C119.344 135.645 119.601 134.537 120.114 133.584C120.627 132.631 121.346 131.897 122.27 131.384C123.194 130.871 124.257 130.614 125.46 130.614C126.619 130.614 127.653 130.863 128.562 131.362C129.486 131.861 130.197 132.572 130.696 133.496C131.209 134.405 131.466 135.454 131.466 136.642ZM128.276 135.762C128.261 134.97 127.975 134.339 127.418 133.87C126.861 133.386 126.179 133.144 125.372 133.144C124.609 133.144 123.964 133.379 123.436 133.848C122.923 134.303 122.607 134.941 122.49 135.762H128.276ZM142.036 132.704C142.432 132.059 142.946 131.553 143.576 131.186C144.222 130.819 144.955 130.636 145.776 130.636V133.87H144.962C143.994 133.87 143.261 134.097 142.762 134.552C142.278 135.007 142.036 135.799 142.036 136.928V143H138.956V130.812H142.036V132.704ZM159.181 136.642C159.181 137.082 159.152 137.478 159.093 137.83H150.183C150.256 138.71 150.564 139.399 151.107 139.898C151.65 140.397 152.317 140.646 153.109 140.646C154.253 140.646 155.067 140.155 155.551 139.172H158.873C158.521 140.345 157.846 141.313 156.849 142.076C155.852 142.824 154.627 143.198 153.175 143.198C152.002 143.198 150.946 142.941 150.007 142.428C149.083 141.9 148.357 141.159 147.829 140.206C147.316 139.253 147.059 138.153 147.059 136.906C147.059 135.645 147.316 134.537 147.829 133.584C148.342 132.631 149.061 131.897 149.985 131.384C150.909 130.871 151.972 130.614 153.175 130.614C154.334 130.614 155.368 130.863 156.277 131.362C157.201 131.861 157.912 132.572 158.411 133.496C158.924 134.405 159.181 135.454 159.181 136.642ZM155.991 135.762C155.976 134.97 155.69 134.339 155.133 133.87C154.576 133.386 153.894 133.144 153.087 133.144C152.324 133.144 151.679 133.379 151.151 133.848C150.638 134.303 150.322 134.941 150.205 135.762H155.991ZM165.015 133.342V139.238C165.015 139.649 165.11 139.949 165.301 140.14C165.506 140.316 165.844 140.404 166.313 140.404H167.743V143H165.807C163.211 143 161.913 141.739 161.913 139.216V133.342H160.461V130.812H161.913V127.798H165.015V130.812H167.743V133.342H165.015ZM181.288 136.642C181.288 137.082 181.259 137.478 181.2 137.83H172.29C172.364 138.71 172.672 139.399 173.214 139.898C173.757 140.397 174.424 140.646 175.216 140.646C176.36 140.646 177.174 140.155 177.658 139.172H180.98C180.628 140.345 179.954 141.313 178.956 142.076C177.959 142.824 176.734 143.198 175.282 143.198C174.109 143.198 173.053 142.941 172.114 142.428C171.19 141.9 170.464 141.159 169.936 140.206C169.423 139.253 169.166 138.153 169.166 136.906C169.166 135.645 169.423 134.537 169.936 133.584C170.45 132.631 171.168 131.897 172.092 131.384C173.016 130.871 174.08 130.614 175.282 130.614C176.441 130.614 177.475 130.863 178.384 131.362C179.308 131.861 180.02 132.572 180.518 133.496C181.032 134.405 181.288 135.454 181.288 136.642ZM178.098 135.762C178.084 134.97 177.798 134.339 177.24 133.87C176.683 133.386 176.001 133.144 175.194 133.144C174.432 133.144 173.786 133.379 173.258 133.848C172.745 134.303 172.43 134.941 172.312 135.762H178.098ZM190.291 130.636C191.743 130.636 192.916 131.098 193.811 132.022C194.705 132.931 195.153 134.207 195.153 135.85V143H192.073V136.268C192.073 135.3 191.831 134.559 191.347 134.046C190.863 133.518 190.203 133.254 189.367 133.254C188.516 133.254 187.841 133.518 187.343 134.046C186.859 134.559 186.617 135.3 186.617 136.268V143H183.537V130.812H186.617V132.33C187.027 131.802 187.548 131.391 188.179 131.098C188.824 130.79 189.528 130.636 190.291 130.636ZM203.295 140.558C204.542 140.558 205.356 140.001 205.737 138.886H209.059C208.751 140.074 208.179 141.042 207.343 141.79C206.522 142.538 205.488 142.985 204.241 143.132V143.99C205.048 143.99 205.723 144.195 206.265 144.606C206.823 145.017 207.101 145.611 207.101 146.388C207.101 147.18 206.815 147.789 206.243 148.214C205.686 148.639 204.997 148.852 204.175 148.852H201.051V147.048H203.669C204.021 147.048 204.285 146.997 204.461 146.894C204.652 146.791 204.747 146.608 204.747 146.344C204.747 146.08 204.652 145.897 204.461 145.794C204.285 145.706 204.021 145.662 203.669 145.662H202.305V143.132C201.308 142.985 200.428 142.641 199.665 142.098C198.917 141.541 198.331 140.822 197.905 139.942C197.495 139.047 197.289 138.035 197.289 136.906C197.289 135.645 197.546 134.545 198.059 133.606C198.573 132.653 199.284 131.919 200.193 131.406C201.103 130.878 202.144 130.614 203.317 130.614C204.828 130.614 206.075 130.995 207.057 131.758C208.055 132.506 208.722 133.562 209.059 134.926H205.737C205.561 134.398 205.261 133.987 204.835 133.694C204.425 133.386 203.911 133.232 203.295 133.232C202.415 133.232 201.719 133.555 201.205 134.2C200.692 134.831 200.435 135.733 200.435 136.906C200.435 138.065 200.692 138.967 201.205 139.612C201.719 140.243 202.415 140.558 203.295 140.558ZM210.524 136.862C210.524 135.63 210.766 134.537 211.25 133.584C211.749 132.631 212.416 131.897 213.252 131.384C214.103 130.871 215.049 130.614 216.09 130.614C216.999 130.614 217.791 130.797 218.466 131.164C219.155 131.531 219.705 131.993 220.116 132.55V130.812H223.218V143H220.116V141.218C219.72 141.79 219.17 142.267 218.466 142.648C217.777 143.015 216.977 143.198 216.068 143.198C215.041 143.198 214.103 142.934 213.252 142.406C212.416 141.878 211.749 141.137 211.25 140.184C210.766 139.216 210.524 138.109 210.524 136.862ZM220.116 136.906C220.116 136.158 219.969 135.52 219.676 134.992C219.383 134.449 218.987 134.039 218.488 133.76C217.989 133.467 217.454 133.32 216.882 133.32C216.31 133.32 215.782 133.459 215.298 133.738C214.814 134.017 214.418 134.427 214.11 134.97C213.817 135.498 213.67 136.129 213.67 136.862C213.67 137.595 213.817 138.241 214.11 138.798C214.418 139.341 214.814 139.759 215.298 140.052C215.797 140.345 216.325 140.492 216.882 140.492C217.454 140.492 217.989 140.353 218.488 140.074C218.987 139.781 219.383 139.37 219.676 138.842C219.969 138.299 220.116 137.654 220.116 136.906ZM213.34 129.646C213.472 128.678 213.773 127.959 214.242 127.49C214.726 127.006 215.335 126.764 216.068 126.764C216.376 126.764 216.647 126.815 216.882 126.918C217.117 127.006 217.381 127.138 217.674 127.314C218.114 127.593 218.481 127.732 218.774 127.732C219.317 127.732 219.632 127.417 219.72 126.786H221.37C221.238 127.754 220.93 128.48 220.446 128.964C219.977 129.433 219.375 129.668 218.642 129.668C218.334 129.668 218.063 129.624 217.828 129.536C217.593 129.433 217.329 129.294 217.036 129.118C216.611 128.825 216.244 128.678 215.936 128.678C215.393 128.678 215.071 129.001 214.968 129.646H213.34ZM231.638 143.198C230.465 143.198 229.409 142.941 228.47 142.428C227.531 141.9 226.791 141.159 226.248 140.206C225.72 139.253 225.456 138.153 225.456 136.906C225.456 135.659 225.727 134.559 226.27 133.606C226.827 132.653 227.583 131.919 228.536 131.406C229.489 130.878 230.553 130.614 231.726 130.614C232.899 130.614 233.963 130.878 234.916 131.406C235.869 131.919 236.617 132.653 237.16 133.606C237.717 134.559 237.996 135.659 237.996 136.906C237.996 138.153 237.71 139.253 237.138 140.206C236.581 141.159 235.818 141.9 234.85 142.428C233.897 142.941 232.826 143.198 231.638 143.198ZM231.638 140.514C232.195 140.514 232.716 140.382 233.2 140.118C233.699 139.839 234.095 139.429 234.388 138.886C234.681 138.343 234.828 137.683 234.828 136.906C234.828 135.747 234.52 134.86 233.904 134.244C233.303 133.613 232.562 133.298 231.682 133.298C230.802 133.298 230.061 133.613 229.46 134.244C228.873 134.86 228.58 135.747 228.58 136.906C228.58 138.065 228.866 138.959 229.438 139.59C230.025 140.206 230.758 140.514 231.638 140.514Z" fill="#FFFFFA"/>
<path d="M124.11 13.4507C123.863 13.45 123.622 13.5277 123.42 13.673C123.219 13.8183 123.066 14.024 122.984 14.2616L121.201 19.508L115.759 19.6215C115.512 19.627 115.273 19.7107 115.075 19.8609C114.877 20.0112 114.73 20.2205 114.653 20.4599C114.577 20.6994 114.576 20.9571 114.649 21.1974C114.723 21.4378 114.868 21.6488 115.064 21.8013L119.401 25.1515L117.825 30.4688C117.754 30.71 117.758 30.9678 117.836 31.2066C117.915 31.4454 118.065 31.6532 118.265 31.8013C118.465 31.9493 118.705 32.0304 118.952 32.0331C119.199 32.0358 119.44 31.9601 119.643 31.8164L124.11 28.6435L128.577 31.8164C128.78 31.9601 129.022 32.0358 129.269 32.0331C129.516 32.0303 129.756 31.9493 129.956 31.8012C130.156 31.6532 130.305 31.4453 130.384 31.2066C130.463 30.9678 130.467 30.71 130.396 30.4687L128.82 25.1515L133.156 21.8013C133.353 21.6488 133.498 21.4377 133.571 21.1974C133.645 20.9571 133.644 20.6994 133.567 20.4599C133.491 20.2205 133.344 20.0112 133.145 19.8609C132.947 19.7107 132.708 19.627 132.462 19.6214L127.022 19.508L125.234 14.2616C125.152 14.0244 125 13.8189 124.799 13.6737C124.597 13.5284 124.357 13.4505 124.11 13.4507ZM124.11 18.3637L125.045 21.1015C125.125 21.3354 125.273 21.539 125.469 21.6848C125.665 21.8306 125.901 21.9117 126.143 21.9172L128.99 21.9763L126.722 23.7282C126.528 23.8785 126.384 24.0858 126.309 24.3222C126.235 24.5585 126.233 24.8124 126.304 25.0498L127.127 27.8278L124.789 26.1681C124.59 26.0272 124.353 25.9516 124.11 25.9516C123.868 25.9516 123.631 26.0272 123.432 26.1681L121.096 27.8278L121.919 25.0498C121.99 24.8122 121.988 24.5581 121.913 24.3217C121.838 24.0854 121.693 23.8782 121.499 23.7282L119.233 21.9763L122.077 21.9172C122.32 21.9121 122.556 21.8313 122.753 21.6854C122.95 21.5396 123.098 21.3358 123.178 21.1015L124.11 18.3637ZM101.234 20.1487C100.988 20.1489 100.748 20.228 100.547 20.375C100.347 20.5221 100.196 20.7297 100.115 20.9691L98.6161 25.3997L94.0581 25.4943C93.8117 25.4991 93.5729 25.5828 93.3748 25.7338C93.1768 25.8847 93.0295 26.0954 92.9533 26.3365C92.8771 26.5776 92.8759 26.8372 92.9498 27.0791C93.0237 27.3209 93.1691 27.5331 93.3657 27.686L96.998 30.5207L95.6784 35.0129C95.6076 35.2552 95.6118 35.5141 95.6905 35.7539C95.7691 35.9936 95.9183 36.2022 96.1174 36.3508C96.3164 36.4994 96.5555 36.5806 96.8014 36.5832C97.0474 36.5858 97.288 36.5096 97.49 36.3652L101.234 33.6865L104.979 36.3652C105.181 36.5087 105.421 36.5841 105.666 36.5811C105.912 36.5781 106.15 36.4967 106.349 36.3483C106.547 36.1998 106.696 35.9916 106.775 35.7524C106.854 35.5132 106.858 35.2548 106.788 35.0129L105.468 30.5207L109.101 27.686C109.297 27.5331 109.442 27.3209 109.516 27.0791C109.59 26.8372 109.589 26.5776 109.513 26.3365C109.437 26.0954 109.289 25.8847 109.091 25.7338C108.893 25.5828 108.655 25.4991 108.408 25.4943L103.852 25.3997L102.351 20.9691C102.271 20.7301 102.12 20.5227 101.92 20.3757C101.72 20.2287 101.48 20.1494 101.234 20.1487ZM146.961 20.1533C146.715 20.1533 146.475 20.2321 146.274 20.3786C146.074 20.5252 145.923 20.7323 145.842 20.9713L144.343 25.4043L139.785 25.4989C139.538 25.5037 139.299 25.5874 139.101 25.7383C138.903 25.8893 138.756 26.1 138.68 26.3411C138.604 26.5822 138.602 26.8418 138.676 27.0836C138.75 27.3255 138.896 27.5376 139.092 27.6906L142.725 30.5253L141.405 35.0174C141.334 35.2597 141.338 35.5187 141.417 35.7584C141.496 35.9982 141.645 36.2068 141.844 36.3554C142.043 36.504 142.282 36.5852 142.528 36.5878C142.774 36.5904 143.014 36.5142 143.216 36.3698L146.961 33.6911L150.705 36.3698C150.907 36.5142 151.148 36.5904 151.394 36.5878C151.64 36.5852 151.879 36.504 152.078 36.3554C152.277 36.2068 152.426 35.9982 152.505 35.7584C152.583 35.5187 152.587 35.2597 152.517 35.0174L151.195 30.5253L154.827 27.6906C155.024 27.5376 155.169 27.3255 155.243 27.0836C155.317 26.8418 155.316 26.5822 155.239 26.3411C155.163 26.1 155.016 25.8893 154.818 25.7383C154.62 25.5874 154.381 25.5037 154.135 25.4989L149.579 25.4043L148.08 20.9713C147.999 20.7323 147.848 20.5252 147.647 20.3786C147.447 20.2321 147.207 20.1533 146.961 20.1533ZM101.234 25.0851L101.88 27.0026C101.96 27.2377 102.107 27.4421 102.303 27.5884C102.499 27.7346 102.734 27.8157 102.976 27.8206L104.951 27.8609L103.377 29.0903C103.184 29.241 103.04 29.4489 102.966 29.6861C102.891 29.9232 102.889 30.1782 102.96 30.4167L103.531 32.3601L101.908 31.2016C101.71 31.0598 101.474 30.9838 101.232 30.9838C100.99 30.9838 100.754 31.0598 100.556 31.2016L98.9355 32.3602L99.5067 30.4167C99.5772 30.1783 99.5751 29.9233 99.5004 29.6861C99.4258 29.449 99.2823 29.2411 99.0893 29.0904L97.518 27.8609L99.4903 27.8207C99.7323 27.8157 99.9671 27.7347 100.163 27.5884C100.359 27.4422 100.507 27.2378 100.586 27.0026L101.234 25.0851ZM146.961 25.0897L147.609 27.0071C147.689 27.2423 147.836 27.4467 148.032 27.5929C148.228 27.7392 148.463 27.8202 148.705 27.8252L150.677 27.8654L149.106 29.0948C148.912 29.2452 148.768 29.453 148.693 29.6902C148.618 29.9274 148.616 30.1825 148.686 30.4212L149.26 32.3646L147.637 31.2038C147.438 31.0614 147.202 30.9851 146.96 30.9851C146.717 30.9851 146.481 31.0614 146.282 31.2038L144.662 32.3646L145.233 30.4212C145.304 30.1827 145.302 29.9278 145.227 29.6906C145.152 29.4535 145.009 29.2455 144.816 29.0948L143.244 27.8654L145.217 27.8252C145.459 27.8202 145.694 27.7392 145.889 27.5929C146.085 27.4467 146.233 27.2423 146.313 27.0071L146.961 25.0897ZM124.001 35.658C119.735 35.658 116.246 39.1993 116.246 43.5287C116.246 46.0926 117.47 48.378 119.354 49.8153C115.8 51.1386 112.946 53.9356 111.511 57.4779C110.202 54.9766 108.054 53.0009 105.45 51.9502C106.982 50.6666 107.963 48.7173 107.963 46.5502C107.963 42.7182 104.895 39.5709 101.134 39.5709C97.3734 39.5709 94.3146 42.7182 94.3146 46.5502C94.3146 48.7172 95.2906 50.6666 96.8208 51.9502C92.4598 53.7104 89.3789 58.0629 89.3789 63.1451V66.1548C89.3802 66.4746 89.5062 66.7809 89.7294 67.0068C89.9526 67.2327 90.2549 67.3599 90.5703 67.3606H111.611C111.641 67.3649 111.67 67.3681 111.7 67.3702H136.301H157.424C157.582 67.3708 157.738 67.3398 157.884 67.2789C158.029 67.218 158.162 67.1286 158.273 67.0156C158.384 66.9026 158.473 66.7684 158.533 66.6207C158.593 66.473 158.623 66.3147 158.623 66.1549V63.1523C158.623 58.0683 155.535 53.7117 151.169 51.9504C152.703 50.6668 153.687 48.7188 153.687 46.5504C153.687 42.7183 150.619 39.5805 146.858 39.5805C143.098 39.5805 140.039 42.7183 140.039 46.5504C140.039 48.7186 141.018 50.6668 142.55 51.9504C139.943 53.0026 137.794 54.9809 136.486 57.4875C135.054 53.9408 132.203 51.1399 128.647 49.8154C130.528 48.3781 131.746 46.0921 131.746 43.5288C131.746 39.1995 128.267 35.658 124.001 35.658ZM124.001 38.079C126.975 38.079 129.358 40.5059 129.358 43.5287C129.358 46.5515 126.975 48.9712 124.001 48.9712C121.027 48.9712 118.634 46.5515 118.634 43.5287C118.634 40.5059 121.027 38.079 124.001 38.079ZM101.134 41.9922C103.592 41.9922 105.575 44.014 105.575 46.5505C105.575 49.0871 103.592 51.1065 101.134 51.1065C98.6765 51.1065 96.7019 49.0871 96.7019 46.5505C96.7019 44.014 98.6765 41.9922 101.134 41.9922ZM146.858 42.0018C149.316 42.0018 151.3 44.0141 151.3 46.5507C151.3 49.0872 149.316 51.1066 146.858 51.1066C144.401 51.1066 142.426 49.0872 142.426 46.5507C142.426 44.0141 144.401 42.0018 146.858 42.0018ZM124.001 51.4022C130.174 51.4022 135.103 56.4176 135.103 62.6892V64.9495H112.898V63.1455C112.898 62.9932 112.895 62.8402 112.889 62.6892C112.889 56.4176 117.828 51.4022 124.001 51.4022ZM101.134 53.5393C106.218 53.5393 110.313 57.5972 110.502 62.7718V64.9398H91.7686V63.1454C91.7686 57.794 95.9281 53.5393 101.134 53.5393ZM146.858 53.5393C152.064 53.5393 156.235 57.8011 156.235 63.1525V64.9493H137.49V63.1525C137.49 57.8011 141.652 53.5393 146.858 53.5393Z" fill="white"/>
</svg>
